M48
;Layer_Color=9474304
;FILE_FORMAT=2:5
INCH,LZ
;TYPE=PLATED
T2F00S00C0.01968
%
T02
X0161732Y-0097874
Y-009
Y-0082126
X-0161732
Y-009
Y-0097874
Y0082126
Y009
Y0097874
X0161732
Y009
Y0082126
X0143257Y0149622
X0137689Y0155189
X0132122Y0160757
X0085374Y0194232
X00775
X0069626
X-0069626
X-00775
X-0085374
X-0132122Y0160757
X-0137689Y0155189
X-0143257Y0149622
M30
