M48
;Layer_Color=9474304
;FILE_FORMAT=2:5
INCH,LZ
;TYPE=PLATED
T1F00S00C0.01500
T3F00S00C0.02500
T4F00S00C0.03543
T6F00S00C0.05000
T7F00S00C0.09000
%
T01
X0143504Y-0095079
X0142618Y-0076181
X0079528Y-0068898
X0065551Y-0064075
X0082579Y-0050098
X0007947Y-0057972
X000405
X-0000265
X-0004232
X-0021358Y-0079823
X-0016634Y-0099213
X0009449Y-0104921
X0014469Y-0139961
X0025492Y-0153839
X0025197Y-0174213
X0045571Y-0166732
X0043504Y-0136221
X-0029724Y-0135039
X-0065748Y-0163484
X-0087205Y-0171949
X-0117077Y-0158317
X-0097859Y-0079307
X-0095596Y-0081569
X-0069587Y-0064665
X-0065158Y-0064468
X-0063618Y-0058921
X-0066142Y-0056398
X-0068405Y0095177
X-0068602Y0110531
X-0122047Y009439
X-0056398Y0107972
X-002628Y0100098
X-0038287Y0087303
X-0039764Y0076575
X-0045571Y0052756
X-0049468
X-0053783
X-005775
X-0017028Y0060335
X-0003937Y0065256
X-0002165Y0086811
X0002732Y0085212
X0014469Y0077362
X0012008Y0095726
X0027165Y0105709
X0052264Y0061713
X001378Y0034055
X0012894Y0022244
X0021358Y0003839
X-0014961
X-0026476
X-0026638Y002661
X-0024114Y0029134
X-0013681Y-001063
X-0010728Y-0021555
X0119685Y0068898
X0110236Y0108661
X0130709Y0111811
X0099114Y0152953
X0080413Y0176673
X0055709Y0181102
X002874Y0167126
X0017127Y0167626
X0025492Y0153642
X0029923Y0151681
X0031791Y014626
X0029431Y0142724
X0038484Y0143799
X0039862Y0149409
X0054921Y0135531
X0014665Y0132579
X0014764Y0140551
X0008366Y014626
X000315Y0145276
X-0005217Y0148031
X-000876Y0144095
X-000561Y0161024
X-0001969Y0160925
X-0014272Y0160728
X-001063Y0170079
X-0029331Y0164173
X-0021358Y0154626
X-0049409Y0146653
X-0052787Y013304
X-0050595Y0129622
X-0048353Y0125761
X-0045866Y0122736
X-0038091Y0119783
X-0040748Y0115354
X-0032691Y0117632
X-0030167Y0115108
X-0004134Y0119783
X0013681Y012185
X-0056398Y0125787
X-0059941Y0181398
X0017421Y0198917
X-0064665Y0124705
X-0087795Y0136221
X-009311Y0148425
X-0125492Y0114961
T03
X-0052658Y-0100984
X0038189Y-0052953
X0051378Y-0053248
X-0068898Y-0110433
X-0073524Y0063583
X-0078098Y007702
T04
X-006Y-01975
Y-01875
X-005
Y-01975
X005
Y-01875
X006
Y-01975
X007
Y-01875
X-007
Y-01975
X-0123453Y-0174282
X-0129471Y-0166296
X-0135489Y-0158309
X-0141507Y-0150323
X-0147525Y-0142337
X-0153543Y-0134351
X0059193Y0083563
X0069193
X0079193
X002Y018
X001
X-0
X-001
X-002
Y019
X-001
X-0
X001
X002
X-0041634Y0185177
Y0175177
Y0165177
Y0195177
T06
X01325Y-0095
Y-0085
X-01325
Y-0095
Y0085
Y0095
X01325
Y0085
X0121036Y0131465
X0113964Y0138535
X00825Y0165
X00725
X-00725
X-00825
X-0113964Y0138535
X-0121036Y0131465
T07
X-0065Y-00425
Y00425
X0065
Y-00425
M30
