%FSLAX25Y25*%
%MOIN*%
G70*
G01*
G75*
G04 Layer_Color=8421504*
%ADD10R,0.06299X0.11811*%
%ADD11R,0.04921X0.21654*%
%ADD12R,0.03543X0.02756*%
%ADD13R,0.03150X0.01575*%
%ADD14R,0.01772X0.01772*%
%ADD15R,0.01575X0.01772*%
%ADD16R,0.06299X0.10630*%
G04:AMPARAMS|DCode=17|XSize=35.43mil|YSize=31.5mil|CornerRadius=0mil|HoleSize=0mil|Usage=FLASHONLY|Rotation=135.000|XOffset=0mil|YOffset=0mil|HoleType=Round|Shape=Rectangle|*
%AMROTATEDRECTD17*
4,1,4,0.02366,-0.00139,0.00139,-0.02366,-0.02366,0.00139,-0.00139,0.02366,0.02366,-0.00139,0.0*
%
%ADD17ROTATEDRECTD17*%

%ADD18R,0.09843X0.06693*%
%ADD19R,0.03543X0.03150*%
%ADD20R,0.06299X0.12992*%
%ADD21R,0.06299X0.05118*%
%ADD22R,0.03937X0.04331*%
%ADD23R,0.03150X0.03543*%
G04:AMPARAMS|DCode=24|XSize=35.43mil|YSize=31.5mil|CornerRadius=0mil|HoleSize=0mil|Usage=FLASHONLY|Rotation=225.000|XOffset=0mil|YOffset=0mil|HoleType=Round|Shape=Rectangle|*
%AMROTATEDRECTD24*
4,1,4,0.00139,0.02366,0.02366,0.00139,-0.00139,-0.02366,-0.02366,-0.00139,0.00139,0.02366,0.0*
%
%ADD24ROTATEDRECTD24*%

%ADD25O,0.01378X0.06693*%
%ADD26R,0.02756X0.03543*%
G04:AMPARAMS|DCode=27|XSize=35.43mil|YSize=27.56mil|CornerRadius=0mil|HoleSize=0mil|Usage=FLASHONLY|Rotation=315.000|XOffset=0mil|YOffset=0mil|HoleType=Round|Shape=Rectangle|*
%AMROTATEDRECTD27*
4,1,4,-0.02227,0.00278,-0.00278,0.02227,0.02227,-0.00278,0.00278,-0.02227,-0.02227,0.00278,0.0*
%
%ADD27ROTATEDRECTD27*%

G04:AMPARAMS|DCode=28|XSize=35.43mil|YSize=27.56mil|CornerRadius=0mil|HoleSize=0mil|Usage=FLASHONLY|Rotation=45.000|XOffset=0mil|YOffset=0mil|HoleType=Round|Shape=Rectangle|*
%AMROTATEDRECTD28*
4,1,4,-0.00278,-0.02227,-0.02227,-0.00278,0.00278,0.02227,0.02227,0.00278,-0.00278,-0.02227,0.0*
%
%ADD28ROTATEDRECTD28*%

G04:AMPARAMS|DCode=29|XSize=15.75mil|YSize=31.5mil|CornerRadius=0mil|HoleSize=0mil|Usage=FLASHONLY|Rotation=225.000|XOffset=0mil|YOffset=0mil|HoleType=Round|Shape=Rectangle|*
%AMROTATEDRECTD29*
4,1,4,-0.00557,0.01670,0.01670,-0.00557,0.00557,-0.01670,-0.01670,0.00557,-0.00557,0.01670,0.0*
%
%ADD29ROTATEDRECTD29*%

%ADD30R,0.01575X0.03150*%
%ADD31O,0.02165X0.06890*%
%ADD32O,0.06890X0.02165*%
%ADD33R,0.03937X0.03937*%
%ADD34R,0.03937X0.03937*%
%ADD35C,0.01000*%
%ADD36C,0.02000*%
%ADD37C,0.03000*%
%ADD38C,0.12000*%
%ADD39R,0.05906X0.05906*%
%ADD40C,0.05906*%
%ADD41R,0.05906X0.05906*%
%ADD42R,0.04921X0.04921*%
%ADD43P,0.06960X4X180.0*%
%ADD44R,0.04921X0.04921*%
%ADD45P,0.06960X4X270.0*%
%ADD46C,0.07000*%
%ADD47C,0.07874*%
%ADD48C,0.02500*%
%ADD49O,0.02362X0.00984*%
%ADD50O,0.00984X0.02362*%
%ADD51R,0.10236X0.10630*%
%ADD52C,0.00984*%
%ADD53C,0.02362*%
%ADD54C,0.00394*%
%ADD55C,0.00500*%
%ADD56C,0.00787*%
%ADD57C,0.00800*%
%ADD58R,0.03150X0.03543*%
D10*
X71386Y-70142D02*
D03*
X44614D02*
D03*
X-44614D02*
D03*
X-71386D02*
D03*
D11*
X61937Y-79000D02*
D03*
X54063D02*
D03*
X-54063D02*
D03*
X-61937D02*
D03*
D12*
X6000Y-125047D02*
D03*
Y-130953D02*
D03*
X0Y-125047D02*
D03*
Y-130953D02*
D03*
X-6000Y-125047D02*
D03*
Y-130953D02*
D03*
X-33000Y-127047D02*
D03*
Y-132953D02*
D03*
X48000Y199953D02*
D03*
Y194047D02*
D03*
X-81500Y199953D02*
D03*
Y194047D02*
D03*
X85000Y-200453D02*
D03*
Y-194547D02*
D03*
X-47000Y-199953D02*
D03*
Y-194047D02*
D03*
X500Y151047D02*
D03*
Y156953D02*
D03*
X6500Y156953D02*
D03*
Y151047D02*
D03*
D13*
X18846Y-129469D02*
D03*
Y-125531D02*
D03*
X12154Y-127500D02*
D03*
X-18846Y-115532D02*
D03*
Y-119468D02*
D03*
X-12154Y-117500D02*
D03*
X-18846Y-125531D02*
D03*
Y-129469D02*
D03*
X-12154Y-127500D02*
D03*
X90346Y177032D02*
D03*
Y180968D02*
D03*
X83653Y179000D02*
D03*
X-89346Y180468D02*
D03*
Y176532D02*
D03*
X-82653Y178500D02*
D03*
X40653Y-178532D02*
D03*
Y-182468D02*
D03*
X47346Y-180500D02*
D03*
X-88346Y-178032D02*
D03*
Y-181968D02*
D03*
X-81653Y-180000D02*
D03*
D14*
X2657Y-140173D02*
D03*
X-2657D02*
D03*
Y-136827D02*
D03*
X2657D02*
D03*
D15*
X0Y-140173D02*
D03*
Y-136827D02*
D03*
D16*
X67012Y-125000D02*
D03*
X55988D02*
D03*
D17*
X105551Y167551D02*
D03*
X109449Y171449D02*
D03*
D18*
X44000Y-124126D02*
D03*
Y-139874D02*
D03*
D19*
X140000Y115256D02*
D03*
Y109744D02*
D03*
X46000Y125256D02*
D03*
Y119744D02*
D03*
X39000Y93244D02*
D03*
Y98756D02*
D03*
X-39000Y112256D02*
D03*
Y106744D02*
D03*
X17000Y164744D02*
D03*
Y170256D02*
D03*
X40500Y125256D02*
D03*
Y119744D02*
D03*
X-143500Y-108744D02*
D03*
Y-114256D02*
D03*
X21000Y-87244D02*
D03*
Y-92756D02*
D03*
X27000Y-87244D02*
D03*
Y-92756D02*
D03*
X-22000Y-158244D02*
D03*
Y-163756D02*
D03*
X44000Y-109244D02*
D03*
Y-114756D02*
D03*
D20*
X-11248Y-158500D02*
D03*
D21*
X13555Y-167555D02*
D03*
Y-158500D02*
D03*
Y-149445D02*
D03*
D23*
X42244Y188000D02*
D03*
X47756D02*
D03*
X-87256Y189000D02*
D03*
X-81744D02*
D03*
X-102744Y79000D02*
D03*
X-108256D02*
D03*
X-23256Y71500D02*
D03*
X-17744D02*
D03*
X9744Y70000D02*
D03*
X15256D02*
D03*
X-17244Y148500D02*
D03*
X-22756D02*
D03*
X-84744Y-85000D02*
D03*
X-90256D02*
D03*
X-47244Y-184000D02*
D03*
X-52756D02*
D03*
X85244Y-185500D02*
D03*
X90756D02*
D03*
X143256Y-74000D02*
D03*
X137744D02*
D03*
X-2256Y-65000D02*
D03*
X3256D02*
D03*
X-2256Y-60000D02*
D03*
X3256D02*
D03*
D24*
X-129551Y131051D02*
D03*
X-133449Y134949D02*
D03*
X-107949Y-165551D02*
D03*
X-104051Y-169449D02*
D03*
X132949Y-136449D02*
D03*
X129051Y-132551D02*
D03*
D25*
X14075Y-76221D02*
D03*
X11516D02*
D03*
X8957D02*
D03*
X6398D02*
D03*
X3839D02*
D03*
X1280D02*
D03*
X-1280D02*
D03*
X-3839D02*
D03*
X-6398D02*
D03*
X-8957D02*
D03*
X-11516D02*
D03*
X-14075D02*
D03*
X14075Y-103779D02*
D03*
X11516D02*
D03*
X8957D02*
D03*
X6398D02*
D03*
X3839D02*
D03*
X1280D02*
D03*
X-1280D02*
D03*
X-3839D02*
D03*
X-6398D02*
D03*
X-8957D02*
D03*
X-11516D02*
D03*
X-14075D02*
D03*
D26*
X154453Y106000D02*
D03*
X148547D02*
D03*
X-143047Y73000D02*
D03*
X-148953D02*
D03*
X155453Y-74000D02*
D03*
X149547D02*
D03*
X-154453Y-109000D02*
D03*
X-148547D02*
D03*
X-84547Y-79000D02*
D03*
X-90453D02*
D03*
X22047Y170000D02*
D03*
X27953D02*
D03*
D27*
X117588Y171588D02*
D03*
X113412Y167412D02*
D03*
X-116088Y-173588D02*
D03*
X-111912Y-169412D02*
D03*
D28*
X-141588Y143588D02*
D03*
X-137412Y139412D02*
D03*
X141588Y-145088D02*
D03*
X137412Y-140912D02*
D03*
D29*
X134974Y126242D02*
D03*
X137758Y129026D02*
D03*
X131634Y132366D02*
D03*
X-133474Y-124742D02*
D03*
X-136258Y-127526D02*
D03*
X-130134Y-130866D02*
D03*
D30*
X-134031Y114847D02*
D03*
X-137969D02*
D03*
X-136000Y108153D02*
D03*
X134531Y-113847D02*
D03*
X138469D02*
D03*
X136500Y-107153D02*
D03*
D31*
X23622Y140020D02*
D03*
X20472D02*
D03*
X17323D02*
D03*
X14173D02*
D03*
X11024D02*
D03*
X7874D02*
D03*
X4724D02*
D03*
X1575D02*
D03*
X-1575D02*
D03*
X-4724D02*
D03*
X-7874D02*
D03*
X-11024D02*
D03*
X-14173D02*
D03*
X-17323D02*
D03*
X-20472D02*
D03*
X-23622D02*
D03*
X-23622Y79980D02*
D03*
X-20472D02*
D03*
X-17323D02*
D03*
X-14173D02*
D03*
X-11024D02*
D03*
X-7874D02*
D03*
X-4724D02*
D03*
X-1575D02*
D03*
X1575D02*
D03*
X4724D02*
D03*
X7874D02*
D03*
X11024D02*
D03*
X14173D02*
D03*
X17323D02*
D03*
X20472D02*
D03*
X23622D02*
D03*
D32*
X-30020Y133622D02*
D03*
Y130473D02*
D03*
Y127323D02*
D03*
Y124173D02*
D03*
Y121024D02*
D03*
Y117874D02*
D03*
Y114724D02*
D03*
Y111575D02*
D03*
Y108425D02*
D03*
Y105276D02*
D03*
Y102126D02*
D03*
Y98976D02*
D03*
Y95827D02*
D03*
Y92677D02*
D03*
Y89528D02*
D03*
Y86378D02*
D03*
X30020Y86378D02*
D03*
Y89528D02*
D03*
Y92677D02*
D03*
Y95827D02*
D03*
Y98976D02*
D03*
Y102126D02*
D03*
Y105276D02*
D03*
Y108425D02*
D03*
Y111575D02*
D03*
Y114724D02*
D03*
Y117874D02*
D03*
Y121024D02*
D03*
Y124173D02*
D03*
Y127323D02*
D03*
Y130473D02*
D03*
Y133622D02*
D03*
D33*
X-90150Y-109768D02*
D03*
Y-93232D02*
D03*
X-83850Y-109768D02*
D03*
Y-93232D02*
D03*
D34*
X-8268Y170150D02*
D03*
X8268D02*
D03*
X-8268Y163850D02*
D03*
X8268D02*
D03*
D58*
X-39000Y-125654D02*
D03*
Y-132346D02*
D03*
M02*
