M48
;Layer_Color=9474304
;FILE_FORMAT=2:5
INCH,LZ
;TYPE=PLATED
T1F00S00C0.01500
T2F00S00C0.03150
T3F00S00C0.03543
T4F00S00C0.05000
T5F00S00C0.09000
%
T01
X-0088346Y-0187153
X-0099603Y-0165
X-00965Y-0127
X-008385Y-011485
X-0099Y-0089
X-0138744Y-0114256
X-01395Y-01325
X-0044Y-01395
X-0040447Y-0143
Y-0159
X-0036Y-0171
X-0028744Y-0164256
X-0018846Y-0134346
X-0023968Y-0119468
X-0023Y-01155
X-00295
X-00335Y-011675
X-0037Y-01145
X-00395Y-01025
X-00215Y-00975
X-002Y-01085
X-00465Y-01195
X-0058Y-0184
X-0011248Y-0167748
X0Y-01535
X00075Y-01585
X00445Y-0147
X0023968Y-0125531
X0029Y-01125
X00285Y-0099
X0035
X0032244Y-0093256
X0012Y-00955
X00075Y-011
X-0008Y-01095
X-00025Y-0089
X00495Y-01045
X0125Y-01285
X0090756Y-0180744
X0143846Y-0113847
X0137744Y-0069244
X007Y-00555
X00665Y-00525
X006Y-0055
X00555
X00325Y-0057
X0024Y-00565
X0017
X0002761Y-0055239
X0008Y-0065
X-0001Y-00695
X-00015Y-00825
X-0013Y-0087
X0015Y-0085
X0025Y-00815
X0029Y-0048
X00115Y-0012
X-00085Y-00105
X-0008Y-0019
X-00135Y00635
X0009744Y0064756
X-0023256Y0066744
X-0057Y00605
X-00575Y0056
X-0065Y-00535
X-00685Y-00505
X-00625Y-00615
X-0054063Y-0065563
X-00355Y-00675
X-0032Y-0074
Y-0061
X-00215Y-006
X-00395Y-0083
X-00435Y-00855
X-0048Y-00865
X-0067Y-0085
X-0073Y-0081
X-0079Y-008
X-0090453Y-0073547
X-0098Y0079
X-00685Y0081
X-0072Y0089
X-0053Y0085
X-00495Y00885
X-00455Y0092
Y0074
X-0044Y0069
X-0065
X-0061Y0074
X-0056Y00805
X-00225Y00875
X-002Y0092
X-0044256Y0112256
X-00525Y01215
Y0134
X-0072Y0133
Y0143
X-0082Y01465
Y0133
Y01235
X-00775Y0114
X-0067
X-01255Y0135
X-0144693Y0110307
X-0138Y0073
X-00935Y01705
X-0094968Y0176532
X-00925Y0189
X-00195Y0164453
X-0017244Y0152756
X-0011024Y0155976
X-0004Y01545
X-0007874Y0150374
X00035Y0147
X0012Y01575
X0017Y016
X00135Y0176
X0023Y0175
X00355
X0042244Y0182744
X00435Y0143
X0049Y01435
X0044Y01315
X0046Y01145
Y01085
X00405Y01155
X00225
X00135Y011
X00085Y01075
X00055Y0095
X-00045Y009
X-0008Y00935
X-0015Y0101
X-00165Y01205
X-0005Y01165
Y01285
X0022Y0089
X0044244Y0093244
X00505Y0079
X0063Y00795
X0067
X00735Y00805
X008Y008
Y0091
X00735Y00905
X0067
X0063
X0036Y0072
X-0014173Y0068173
X0102Y0164
X01395Y01335
X014Y01195
T02
X-0125189Y-0155189
X-0130757Y-0149622
X-0119622Y-0160757
X-0072874Y-0194232
X-0065
X-0057126
X-0149232Y-0097874
Y-009
X0057126Y-0194232
X0065
X0072874
X0119622Y-0160757
X0125189Y-0155189
X0130757Y-0149622
X0149232Y-0097874
Y-009
Y-0082126
X-0149232
Y0082126
Y009
Y0097874
X-0130757Y0149622
X-0125189Y0155189
X-0119622Y0160757
X-0072874Y0194232
X-0065
X-0057126
X0057126
X0065
X0072874
X0119622Y0160757
X0125189Y0155189
X0130757Y0149622
X0149232Y0097874
Y009
Y0082126
T03
X-0025Y-01845
X-0056563Y-0132
Y-0122
Y-0112
X-0015Y-01845
X-0005
X0005
X0015
X0025
X0015Y-0199
X0005
X-0005
X-0015
X0063Y-0102063
X0073
X0083
X0094Y-007
X0104
X00065Y-0044
Y-0034
X-00065
Y-0044
X-002Y0189
Y0199
X-0041
Y0189
X-001
X0
X001
X002
Y0199
X001
X0
X-001
T04
X-0108536Y-0131465
X-0101464Y-0138535
X-007Y-0165
X-006
X-012Y-0095
X012
X0108536Y-0131465
X0101464Y-0138535
X007Y-0165
X006
X012Y-0085
X-012
Y0085
Y0095
X-0108536Y0131465
X-0101464Y0138535
X-007Y0165
X-006
X006
X007
X0101464Y0138535
X0108536Y0131465
X012Y0095
Y0085
T05
X0051Y-00425
Y00425
X-0051
Y-00425
M30
