%FSLAX25Y25*%
%MOIN*%
G70*
G01*
G75*
G04 Layer_Physical_Order=1*
G04 Layer_Color=13311*
%ADD10R,0.06299X0.11811*%
%ADD11R,0.04921X0.21654*%
%ADD12R,0.03543X0.02756*%
%ADD13R,0.03150X0.01575*%
%ADD14R,0.01772X0.01772*%
%ADD15R,0.01575X0.01772*%
%ADD16R,0.06299X0.10630*%
G04:AMPARAMS|DCode=17|XSize=35.43mil|YSize=31.5mil|CornerRadius=0mil|HoleSize=0mil|Usage=FLASHONLY|Rotation=135.000|XOffset=0mil|YOffset=0mil|HoleType=Round|Shape=Rectangle|*
%AMROTATEDRECTD17*
4,1,4,0.02366,-0.00139,0.00139,-0.02366,-0.02366,0.00139,-0.00139,0.02366,0.02366,-0.00139,0.0*
%
%ADD17ROTATEDRECTD17*%

%ADD18R,0.09843X0.06693*%
%ADD19R,0.03543X0.03150*%
%ADD20R,0.06299X0.12992*%
%ADD21R,0.06299X0.05118*%
%ADD22R,0.03937X0.04331*%
%ADD23R,0.03150X0.03543*%
G04:AMPARAMS|DCode=24|XSize=35.43mil|YSize=31.5mil|CornerRadius=0mil|HoleSize=0mil|Usage=FLASHONLY|Rotation=225.000|XOffset=0mil|YOffset=0mil|HoleType=Round|Shape=Rectangle|*
%AMROTATEDRECTD24*
4,1,4,0.00139,0.02366,0.02366,0.00139,-0.00139,-0.02366,-0.02366,-0.00139,0.00139,0.02366,0.0*
%
%ADD24ROTATEDRECTD24*%

%ADD25O,0.01378X0.06693*%
%ADD26R,0.02756X0.03543*%
G04:AMPARAMS|DCode=27|XSize=35.43mil|YSize=27.56mil|CornerRadius=0mil|HoleSize=0mil|Usage=FLASHONLY|Rotation=315.000|XOffset=0mil|YOffset=0mil|HoleType=Round|Shape=Rectangle|*
%AMROTATEDRECTD27*
4,1,4,-0.02227,0.00278,-0.00278,0.02227,0.02227,-0.00278,0.00278,-0.02227,-0.02227,0.00278,0.0*
%
%ADD27ROTATEDRECTD27*%

G04:AMPARAMS|DCode=28|XSize=35.43mil|YSize=27.56mil|CornerRadius=0mil|HoleSize=0mil|Usage=FLASHONLY|Rotation=45.000|XOffset=0mil|YOffset=0mil|HoleType=Round|Shape=Rectangle|*
%AMROTATEDRECTD28*
4,1,4,-0.00278,-0.02227,-0.02227,-0.00278,0.00278,0.02227,0.02227,0.00278,-0.00278,-0.02227,0.0*
%
%ADD28ROTATEDRECTD28*%

G04:AMPARAMS|DCode=29|XSize=15.75mil|YSize=31.5mil|CornerRadius=0mil|HoleSize=0mil|Usage=FLASHONLY|Rotation=225.000|XOffset=0mil|YOffset=0mil|HoleType=Round|Shape=Rectangle|*
%AMROTATEDRECTD29*
4,1,4,-0.00557,0.01670,0.01670,-0.00557,0.00557,-0.01670,-0.01670,0.00557,-0.00557,0.01670,0.0*
%
%ADD29ROTATEDRECTD29*%

%ADD30R,0.01575X0.03150*%
%ADD31O,0.02165X0.06890*%
%ADD32O,0.06890X0.02165*%
%ADD33R,0.03937X0.03937*%
%ADD34R,0.03937X0.03937*%
%ADD35C,0.01000*%
%ADD36C,0.02000*%
%ADD37C,0.03000*%
%ADD38C,0.12000*%
%ADD39R,0.05906X0.05906*%
%ADD40C,0.05906*%
%ADD41R,0.05906X0.05906*%
%ADD42R,0.04921X0.04921*%
%ADD43P,0.06960X4X180.0*%
%ADD44R,0.04921X0.04921*%
%ADD45P,0.06960X4X270.0*%
%ADD46C,0.07000*%
%ADD47C,0.07874*%
%ADD48C,0.02500*%
D10*
X71386Y-70142D02*
D03*
X44614D02*
D03*
X-44614D02*
D03*
X-71386D02*
D03*
D11*
X61937Y-79000D02*
D03*
X54063D02*
D03*
X-54063D02*
D03*
X-61937D02*
D03*
D12*
X6000Y-125047D02*
D03*
Y-130953D02*
D03*
X0Y-125047D02*
D03*
Y-130953D02*
D03*
X-6000Y-125047D02*
D03*
Y-130953D02*
D03*
X-33000Y-127047D02*
D03*
Y-132953D02*
D03*
X48000Y199953D02*
D03*
Y194047D02*
D03*
X-81500Y199953D02*
D03*
Y194047D02*
D03*
X85000Y-200453D02*
D03*
Y-194547D02*
D03*
X-47000Y-199953D02*
D03*
Y-194047D02*
D03*
X500Y151047D02*
D03*
Y156953D02*
D03*
X6500Y156953D02*
D03*
Y151047D02*
D03*
D13*
X18846Y-129469D02*
D03*
Y-125531D02*
D03*
X12154Y-127500D02*
D03*
X-18846Y-115532D02*
D03*
Y-119468D02*
D03*
X-12154Y-117500D02*
D03*
X-18846Y-125531D02*
D03*
Y-129469D02*
D03*
X-12154Y-127500D02*
D03*
X90346Y177032D02*
D03*
Y180968D02*
D03*
X83653Y179000D02*
D03*
X-89346Y180468D02*
D03*
Y176532D02*
D03*
X-82653Y178500D02*
D03*
X40653Y-178532D02*
D03*
Y-182468D02*
D03*
X47346Y-180500D02*
D03*
X-88346Y-178032D02*
D03*
Y-181968D02*
D03*
X-81653Y-180000D02*
D03*
D14*
X2657Y-140173D02*
D03*
X-2657D02*
D03*
Y-136827D02*
D03*
X2657D02*
D03*
D15*
X0Y-140173D02*
D03*
Y-136827D02*
D03*
D16*
X67012Y-125000D02*
D03*
X55988D02*
D03*
D17*
X105551Y167551D02*
D03*
X109449Y171449D02*
D03*
D18*
X44000Y-124126D02*
D03*
Y-139874D02*
D03*
D19*
X140000Y115256D02*
D03*
Y109744D02*
D03*
X46000Y125256D02*
D03*
Y119744D02*
D03*
X39000Y93244D02*
D03*
Y98756D02*
D03*
X-39000Y112256D02*
D03*
Y106744D02*
D03*
X17000Y164744D02*
D03*
Y170256D02*
D03*
X40500Y125256D02*
D03*
Y119744D02*
D03*
X-143500Y-108744D02*
D03*
Y-114256D02*
D03*
X21000Y-87244D02*
D03*
Y-92756D02*
D03*
X27000Y-87244D02*
D03*
Y-92756D02*
D03*
X-22000Y-158244D02*
D03*
Y-163756D02*
D03*
X44000Y-109244D02*
D03*
Y-114756D02*
D03*
D20*
X-11248Y-158500D02*
D03*
D21*
X13555Y-167555D02*
D03*
Y-158500D02*
D03*
Y-149445D02*
D03*
D22*
X-39000Y-125654D02*
D03*
Y-132346D02*
D03*
D23*
X42244Y188000D02*
D03*
X47756D02*
D03*
X-87256Y189000D02*
D03*
X-81744D02*
D03*
X-102744Y79000D02*
D03*
X-108256D02*
D03*
X-23256Y71500D02*
D03*
X-17744D02*
D03*
X9744Y70000D02*
D03*
X15256D02*
D03*
X-17244Y148500D02*
D03*
X-22756D02*
D03*
X-84744Y-85000D02*
D03*
X-90256D02*
D03*
X-47244Y-184000D02*
D03*
X-52756D02*
D03*
X85244Y-185500D02*
D03*
X90756D02*
D03*
X143256Y-74000D02*
D03*
X137744D02*
D03*
X-2256Y-65000D02*
D03*
X3256D02*
D03*
X-2256Y-60000D02*
D03*
X3256D02*
D03*
D24*
X-129551Y131051D02*
D03*
X-133449Y134949D02*
D03*
X-107949Y-165551D02*
D03*
X-104051Y-169449D02*
D03*
X132949Y-136449D02*
D03*
X129051Y-132551D02*
D03*
D25*
X14075Y-76221D02*
D03*
X11516D02*
D03*
X8957D02*
D03*
X6398D02*
D03*
X3839D02*
D03*
X1280D02*
D03*
X-1280D02*
D03*
X-3839D02*
D03*
X-6398D02*
D03*
X-8957D02*
D03*
X-11516D02*
D03*
X-14075D02*
D03*
X14075Y-103779D02*
D03*
X11516D02*
D03*
X8957D02*
D03*
X6398D02*
D03*
X3839D02*
D03*
X1280D02*
D03*
X-1280D02*
D03*
X-3839D02*
D03*
X-6398D02*
D03*
X-8957D02*
D03*
X-11516D02*
D03*
X-14075D02*
D03*
D26*
X154453Y106000D02*
D03*
X148547D02*
D03*
X-143047Y73000D02*
D03*
X-148953D02*
D03*
X155453Y-74000D02*
D03*
X149547D02*
D03*
X-154453Y-109000D02*
D03*
X-148547D02*
D03*
X-84547Y-79000D02*
D03*
X-90453D02*
D03*
X22047Y170000D02*
D03*
X27953D02*
D03*
D27*
X117588Y171588D02*
D03*
X113412Y167412D02*
D03*
X-116088Y-173588D02*
D03*
X-111912Y-169412D02*
D03*
D28*
X-141588Y143588D02*
D03*
X-137412Y139412D02*
D03*
X141588Y-145088D02*
D03*
X137412Y-140912D02*
D03*
D29*
X134974Y126242D02*
D03*
X137758Y129026D02*
D03*
X131634Y132366D02*
D03*
X-133474Y-124742D02*
D03*
X-136258Y-127526D02*
D03*
X-130134Y-130866D02*
D03*
D30*
X-134031Y114847D02*
D03*
X-137969D02*
D03*
X-136000Y108153D02*
D03*
X134531Y-113847D02*
D03*
X138469D02*
D03*
X136500Y-107153D02*
D03*
D31*
X23622Y140020D02*
D03*
X20472D02*
D03*
X17323D02*
D03*
X14173D02*
D03*
X11024D02*
D03*
X7874D02*
D03*
X4724D02*
D03*
X1575D02*
D03*
X-1575D02*
D03*
X-4724D02*
D03*
X-7874D02*
D03*
X-11024D02*
D03*
X-14173D02*
D03*
X-17323D02*
D03*
X-20472D02*
D03*
X-23622D02*
D03*
X-23622Y79980D02*
D03*
X-20472D02*
D03*
X-17323D02*
D03*
X-14173D02*
D03*
X-11024D02*
D03*
X-7874D02*
D03*
X-4724D02*
D03*
X-1575D02*
D03*
X1575D02*
D03*
X4724D02*
D03*
X7874D02*
D03*
X11024D02*
D03*
X14173D02*
D03*
X17323D02*
D03*
X20472D02*
D03*
X23622D02*
D03*
D32*
X-30020Y133622D02*
D03*
Y130473D02*
D03*
Y127323D02*
D03*
Y124173D02*
D03*
Y121024D02*
D03*
Y117874D02*
D03*
Y114724D02*
D03*
Y111575D02*
D03*
Y108425D02*
D03*
Y105276D02*
D03*
Y102126D02*
D03*
Y98976D02*
D03*
Y95827D02*
D03*
Y92677D02*
D03*
Y89528D02*
D03*
Y86378D02*
D03*
X30020Y86378D02*
D03*
Y89528D02*
D03*
Y92677D02*
D03*
Y95827D02*
D03*
Y98976D02*
D03*
Y102126D02*
D03*
Y105276D02*
D03*
Y108425D02*
D03*
Y111575D02*
D03*
Y114724D02*
D03*
Y117874D02*
D03*
Y121024D02*
D03*
Y124173D02*
D03*
Y127323D02*
D03*
Y130473D02*
D03*
Y133622D02*
D03*
D33*
X-90150Y-109768D02*
D03*
Y-93232D02*
D03*
X-83850Y-109768D02*
D03*
Y-93232D02*
D03*
D34*
X-8268Y170150D02*
D03*
X8268D02*
D03*
X-8268Y163850D02*
D03*
X8268D02*
D03*
D35*
X-10500Y117500D02*
Y130500D01*
X-19500Y108500D02*
X-10500Y117500D01*
X-19500Y108500D02*
X-16500D01*
X-15000Y101000D02*
Y107000D01*
X-16500Y108500D02*
X-15000Y107000D01*
X-8500Y-10500D02*
X-8000Y-11000D01*
Y-19000D02*
Y-11000D01*
X12000Y-88000D02*
X15000Y-85000D01*
X12000Y-95500D02*
Y-88000D01*
X-3839Y-80161D02*
Y-76221D01*
Y-80161D02*
X-1500Y-82500D01*
X-90150Y-109768D02*
Y-93232D01*
X49500Y-114500D02*
Y-104500D01*
Y-114500D02*
X52500Y-117500D01*
X40653Y-178532D02*
Y-157846D01*
X61500Y-137000D01*
Y-119000D01*
X60000Y-117500D02*
X61500Y-119000D01*
X52500Y-117500D02*
X60000D01*
X-67000Y-132500D02*
Y-85000D01*
Y-132500D02*
X-61500Y-138000D01*
X-49500D01*
X-47500Y-136000D01*
X-35000D01*
X-33000Y-134000D01*
Y-132953D01*
X-78500Y-75500D02*
X-73000Y-81000D01*
X-54063Y-65563D02*
X-54000Y-65500D01*
X-54063Y-79000D02*
Y-65563D01*
X-81047Y-75500D02*
X-78500D01*
X-84547Y-79000D02*
X-81047Y-75500D01*
X29000Y-77500D02*
Y-48000D01*
X25000Y-81500D02*
X29000Y-77500D01*
X-52200Y128300D02*
X-40700D01*
X-60700Y119800D02*
X-52200Y128300D01*
X-60700Y81300D02*
Y119800D01*
X-71200Y70800D02*
X-60700Y81300D01*
X-71200Y65700D02*
Y70800D01*
Y65700D02*
X-61500Y56000D01*
X-57500D01*
X-48000Y-113000D02*
Y-86500D01*
Y-113000D02*
X-39300Y-121700D01*
X-43500Y-112500D02*
Y-85500D01*
Y-112500D02*
X-36000Y-120000D01*
X-39300Y-121700D02*
X-32800D01*
X-36000Y-120000D02*
X-31500D01*
X-32800Y-121700D02*
X-27000Y-127500D01*
Y-134500D02*
Y-127500D01*
Y-134500D02*
X-21000Y-140500D01*
X-11000D01*
X-5000Y-146500D01*
Y-166500D02*
Y-146500D01*
X-10000Y-171500D02*
X-5000Y-166500D01*
X-10000Y-188500D02*
Y-171500D01*
Y-188500D02*
X-5000Y-193500D01*
Y-199000D02*
Y-193500D01*
X-31500Y-120000D02*
X-23500Y-128000D01*
Y-134500D02*
Y-128000D01*
X-33500Y-114500D02*
X-32000Y-113000D01*
X-33500Y-116750D02*
Y-114500D01*
X-35500Y-124547D02*
X-33000Y-127047D01*
Y-132953D02*
X-31500Y-134453D01*
X-22468Y-125531D02*
X-18846D01*
X-26500Y-121500D02*
X-22468Y-125531D01*
X-26500Y-121500D02*
Y-56000D01*
X-23500Y-134500D02*
X-19500Y-138500D01*
X-10000D01*
X-2500Y-146000D01*
Y-156500D02*
Y-146000D01*
Y-156500D02*
X500Y-159500D01*
Y-194500D02*
Y-159500D01*
Y-194500D02*
X5000Y-199000D01*
X7500Y-158500D02*
X13555D01*
X-11248Y-167748D02*
Y-158500D01*
X-63500Y60500D02*
X-57000D01*
X-69500Y66500D02*
X-63500Y60500D01*
X-69500Y66500D02*
Y70000D01*
X-59000Y80500D01*
Y118500D01*
X-51500Y126000D01*
X-37500D01*
X-36177Y127323D01*
X-30020D01*
X-49827Y124173D02*
X-30020D01*
X-52500Y121500D02*
X-49827Y124173D01*
X-56000Y118000D02*
X-52500Y121500D01*
X-56000Y80500D02*
Y118000D01*
X-40700Y128300D02*
X-38528Y130473D01*
X-30020D01*
X-68500Y81000D02*
Y85500D01*
X-72000Y89000D02*
X-68500Y85500D01*
X-65000Y69000D02*
X-44000D01*
X-4500Y90000D02*
X500Y95000D01*
X5500D01*
X22000Y89000D02*
X24622Y86378D01*
X14173Y85327D02*
X24000Y95153D01*
X12500Y87000D02*
X14173Y85327D01*
X24000Y95153D02*
Y98000D01*
X24622Y86378D02*
X30020D01*
X-61000Y74000D02*
X-45500D01*
X-138000Y73000D02*
X-138000Y73000D01*
X-143047Y73000D02*
X-138000D01*
X-72500Y-50500D02*
X-68500D01*
X-87500Y-65500D02*
X-72500Y-50500D01*
X-140000Y-65500D02*
X-87500D01*
X-66500Y-55500D02*
X-65000Y-53500D01*
X-74500Y-55500D02*
X-66500D01*
Y-65500D02*
X-62500Y-61500D01*
X-62000D01*
X-86200Y-67200D02*
X-74500Y-55500D01*
X-66500Y-79000D02*
Y-65500D01*
X-74500Y-87000D02*
X-66500Y-79000D01*
X63000Y79500D02*
Y90500D01*
X55500Y-55000D02*
X61000Y-60500D01*
X74000D01*
X67000Y79500D02*
Y90500D01*
X74000Y-60500D02*
X82500Y-69000D01*
Y-79500D02*
Y-69000D01*
Y-79500D02*
X107500Y-104500D01*
Y-112000D02*
Y-104500D01*
Y-112000D02*
X117000Y-121500D01*
Y-145000D02*
Y-121500D01*
X85000Y-177000D02*
X117000Y-145000D01*
X85000Y-194547D02*
Y-177000D01*
X60000Y-55000D02*
X63500Y-58500D01*
X75000D01*
X85500Y-69000D01*
Y-77500D02*
Y-69000D01*
Y-77500D02*
X110500Y-102500D01*
Y-111500D02*
Y-102500D01*
Y-111500D02*
X115500Y-116500D01*
X126500D01*
X137412Y-127412D01*
X116847Y-113847D02*
X134531D01*
X114000Y-111000D02*
X116847Y-113847D01*
X114000Y-111000D02*
Y-102000D01*
X88000Y-76000D02*
X114000Y-102000D01*
X88000Y-76000D02*
Y-68500D01*
X75000Y-55500D02*
X88000Y-68500D01*
X70000Y-55500D02*
X75000D01*
X73500Y80500D02*
Y90500D01*
X-18024Y121024D02*
X-17500Y120500D01*
X-16500D01*
X-30020Y121024D02*
X-18024D01*
X-10500Y130500D02*
X-8500Y132500D01*
X6000D01*
X-19000D02*
X-8500D01*
X-20472Y133972D02*
X-19000Y132500D01*
X-30020Y108425D02*
X-19000Y108491D01*
X13500Y110000D02*
Y111500D01*
X8500Y107500D02*
Y110000D01*
X17323Y118823D01*
X80000Y80000D02*
Y91000D01*
X66500Y-52500D02*
X75500D01*
X88000Y-65000D01*
X140547D01*
X149547Y-74000D01*
X46000Y119744D02*
X46000Y119744D01*
Y114500D02*
Y119744D01*
Y105756D02*
Y108500D01*
X39000Y98756D02*
X46000Y105756D01*
X48000Y194047D02*
X48185Y194232D01*
X57126D01*
X43500Y143000D02*
X49000Y137500D01*
Y128256D02*
Y137500D01*
X46000Y125256D02*
X49000Y128256D01*
X35000Y139500D02*
X41500Y146000D01*
X46500D01*
X49000Y143500D01*
X35000Y132500D02*
Y139500D01*
X32972Y130473D02*
X35000Y132500D01*
X30020Y130473D02*
X32972D01*
X-65000Y198500D02*
X-58500Y205000D01*
X42953D01*
X48000Y199953D01*
X-80000Y130000D02*
X-41500D01*
X-95153Y114847D02*
X-80000Y130000D01*
X-41500D02*
X-37878Y133622D01*
X7874Y134374D02*
Y140020D01*
X6000Y132500D02*
X7874Y134374D01*
X-20472Y133972D02*
Y140020D01*
X-14500Y87000D02*
X-8000Y93500D01*
X24000Y98000D02*
X24976Y98976D01*
X30020D01*
X14173Y79980D02*
Y85327D01*
X-14500Y87000D02*
X12500D01*
X-17323Y84177D02*
X-14500Y87000D01*
X-17323Y79980D02*
Y84177D01*
X11500Y-12000D02*
Y59500D01*
X15256Y63256D01*
Y70000D01*
X-40447Y-159000D02*
Y-143000D01*
X-32000Y-113000D02*
Y-74000D01*
X-35500Y-103500D02*
Y-67500D01*
X-37000Y-105000D02*
X-35500Y-103500D01*
X-37000Y-114500D02*
Y-105000D01*
X-44000Y-169500D02*
Y-139500D01*
Y-169500D02*
X-42500Y-171000D01*
X-36000D01*
X0Y-153500D02*
Y-140173D01*
X-27000Y-199000D02*
X-15000D01*
X-33000Y-193000D02*
X-27000Y-199000D01*
X-33000Y-193000D02*
Y-162500D01*
X-39500Y-83000D02*
Y-82500D01*
Y-102500D02*
Y-83000D01*
X-53000Y85000D02*
Y113500D01*
X-48626Y117874D01*
X-30020D01*
X-96500Y-127000D02*
X-88346Y-135153D01*
Y-178032D02*
Y-135153D01*
X-74500Y-134500D02*
Y-87000D01*
Y-134500D02*
X-47000Y-162000D01*
Y-194047D02*
Y-162000D01*
X-22500Y87500D02*
X-19000D01*
X14173Y120673D01*
Y140020D01*
X17323Y118823D02*
Y140020D01*
X13500Y111500D02*
X20472Y118473D01*
Y140020D01*
X22500Y115500D02*
X23622Y116622D01*
Y140020D01*
X-35500Y-58000D02*
X-24000Y-46500D01*
X-74000Y-58000D02*
X-35500D01*
X-85500Y-69500D02*
X-74000Y-58000D01*
X-129000Y-69500D02*
X-85500D01*
X-131000Y-71500D02*
X-129000Y-69500D01*
X-131000Y-101000D02*
Y-71500D01*
Y-101000D02*
X-101500Y-130500D01*
Y-131500D02*
Y-130500D01*
X-119622Y-149622D02*
X-101500Y-131500D01*
X-119622Y-160757D02*
Y-149622D01*
X-129500Y-67200D02*
X-86200D01*
X-133474Y-71174D02*
X-129500Y-67200D01*
X-133474Y-124742D02*
Y-71174D01*
X-24000Y-46500D02*
Y50000D01*
X-25500Y51500D02*
X-24000Y50000D01*
X-32000Y51500D02*
X-25500D01*
X-39000Y58500D02*
X-32000Y51500D01*
X-39000Y58500D02*
Y72500D01*
X-45500Y79000D02*
X-39000Y72500D01*
X-45500Y79000D02*
Y92000D01*
X-20000D02*
X11024Y123024D01*
Y140020D01*
X-72000Y133000D02*
Y143000D01*
X3500Y147000D02*
X4724Y145776D01*
Y140020D02*
Y145776D01*
X-143000Y-68500D02*
X-140000Y-65500D01*
X-143000Y-95500D02*
Y-68500D01*
X-145374Y-97874D02*
X-143000Y-95500D01*
X-149232Y-97874D02*
X-145374D01*
X-28700Y-115200D02*
Y-54700D01*
X-29000Y-115500D02*
X-28700Y-115200D01*
X-95000Y-85000D02*
X-90256D01*
X-99000Y-89000D02*
X-95000Y-85000D01*
X-90453Y-79000D02*
X-90256Y-79197D01*
Y-85000D02*
Y-79197D01*
X-90453Y-79000D02*
Y-73547D01*
X-21500Y-97500D02*
Y-60000D01*
X-18878Y-115500D02*
X-18846Y-115532D01*
X-23000Y-115500D02*
X-18878D01*
X-29500D02*
X-29000D01*
X-26500Y-56000D02*
X-19000Y-48500D01*
X-28700Y-54700D02*
X-21500Y-47500D01*
Y51500D01*
X-24000Y54000D02*
X-21500Y51500D01*
X-30500Y54000D02*
X-24000D01*
X-37000Y60500D02*
X-30500Y54000D01*
X-37000Y60500D02*
Y74000D01*
X-42000Y79000D02*
X-37000Y74000D01*
X-19000Y-48500D02*
Y53000D01*
X-22500Y56500D02*
X-19000Y53000D01*
X-29000Y56500D02*
X-22500D01*
X-34500Y62000D02*
X-29000Y56500D01*
X-34500Y62000D02*
Y76000D01*
X-39500Y81000D02*
X-34500Y76000D01*
X137412Y-142967D02*
Y-140912D01*
X130757Y-149622D02*
X137412Y-142967D01*
X52417Y-194232D02*
X57126D01*
X40653Y-182468D02*
X52417Y-194232D01*
X-111912Y-169412D02*
Y-168467D01*
X-119622Y-160757D02*
X-111912Y-168467D01*
X-139500Y-132500D02*
Y-130767D01*
X-136258Y-127526D01*
X-84744Y-85000D02*
X-83850Y-85894D01*
Y-93232D02*
Y-85894D01*
Y-114850D02*
Y-109768D01*
X-90256Y-93126D02*
Y-85000D01*
X-84000D02*
X-79000Y-80000D01*
X-84744Y-85000D02*
X-84000D01*
X24000Y-58407D02*
Y-56500D01*
X8957Y-73451D02*
X24000Y-58407D01*
X8957Y-76221D02*
Y-73451D01*
X17000Y-56500D02*
Y-28000D01*
X9000Y-20000D02*
X17000Y-28000D01*
X9000Y-20000D02*
Y59000D01*
X6424Y61576D02*
X9000Y59000D01*
X6424Y61576D02*
Y71924D01*
X7874Y73374D01*
X4724Y60776D02*
X6700Y58800D01*
X4724Y60776D02*
Y79980D01*
X6700Y-21200D02*
Y58800D01*
X5000Y-24000D02*
Y57500D01*
X1575Y60925D02*
X5000Y57500D01*
X1575Y60925D02*
Y79980D01*
X2000Y-52000D02*
Y56500D01*
X-1575Y60075D02*
X2000Y56500D01*
X-1575Y60075D02*
Y79980D01*
X0Y-50500D02*
Y55500D01*
X-4724Y60224D02*
X0Y55500D01*
X-4724Y60224D02*
Y79980D01*
X-2000Y-48500D02*
Y54500D01*
X-7874Y60374D02*
X-2000Y54500D01*
X-7874Y60374D02*
Y79980D01*
X6700Y-21200D02*
X14000Y-28500D01*
Y-62500D02*
Y-28500D01*
X3839Y-72661D02*
X14000Y-62500D01*
X3839Y-76221D02*
Y-72661D01*
X19500Y-60000D02*
Y72500D01*
X6398Y-73102D02*
X19500Y-60000D01*
X6398Y-76221D02*
Y-73102D01*
X8261Y-55239D02*
X11500Y-52000D01*
X2761Y-55239D02*
X8261D01*
X0Y-54000D02*
X2000Y-52000D01*
X11500D02*
Y-28500D01*
X10000Y-27000D02*
X11500Y-28500D01*
X8000Y-27000D02*
X10000D01*
X5000Y-24000D02*
X8000Y-27000D01*
X17323Y74677D02*
Y79980D01*
Y74677D02*
X19500Y72500D01*
X-8000Y-103779D02*
X-6398D01*
X-8957D02*
X-8000D01*
X8000Y-65000D02*
X8000Y-65000D01*
X29000Y-112500D02*
X33000Y-116500D01*
Y-127000D02*
Y-116500D01*
X19000Y-141000D02*
X33000Y-127000D01*
X11000Y-141000D02*
X19000D01*
X7000Y-145000D02*
X11000Y-141000D01*
X7000Y-151945D02*
Y-145000D01*
Y-151945D02*
X13555Y-158500D01*
X18846Y-129469D02*
X25532D01*
X27500Y-127500D01*
Y-123000D01*
X26000Y-121500D02*
X27500Y-123000D01*
X4500Y-121500D02*
X26000D01*
X-1500Y-115500D02*
X4500Y-121500D01*
X-10000Y-115500D02*
X-1500D01*
X-12500Y-113000D02*
X-10000Y-115500D01*
X-20500Y-113000D02*
X-12500D01*
X-24500Y-109000D02*
X-20500Y-113000D01*
X-49000Y-122000D02*
X-46500Y-119500D01*
X-56563Y-122000D02*
X-49000D01*
X-20000Y-108500D02*
X-18000Y-106500D01*
Y-60000D01*
X-24500Y-109000D02*
Y-57500D01*
X-16500Y-49500D01*
Y54500D01*
X-20500Y58500D02*
X-16500Y54500D01*
X-27000Y58500D02*
X-20500D01*
X-32000Y63500D02*
X-27000Y58500D01*
X-32000Y63500D02*
Y78000D01*
X-36500Y82500D02*
X-32000Y78000D01*
X-21500Y-60000D02*
X-14500Y-53000D01*
Y55500D01*
X-20000Y61000D02*
X-14500Y55500D01*
X-26500Y61000D02*
X-20000D01*
X-30020Y64520D02*
X-26500Y61000D01*
X-30020Y64520D02*
Y86378D01*
X-27000Y76602D02*
X-23622Y79980D01*
X-27000Y66000D02*
Y76602D01*
Y66000D02*
X-24500Y63500D01*
X-18500D01*
X-18000Y-60000D02*
X-11500Y-53500D01*
Y56500D01*
X-18500Y63500D02*
X-11500Y56500D01*
X-4100Y-50600D02*
X-2000Y-48500D01*
X-5908Y-50600D02*
X-4100D01*
X-1800Y-52300D02*
X0Y-50500D01*
X-11516Y-56207D02*
X-5908Y-50600D01*
X-11516Y-76221D02*
Y-56207D01*
X-8957Y-76221D02*
Y-56053D01*
X-5204Y-52300D01*
X-1800D01*
X-4500Y-54000D02*
X0D01*
X-6398Y-55898D02*
X-4500Y-54000D01*
X-6398Y-76221D02*
Y-55898D01*
X7874Y73374D02*
Y79980D01*
X1280Y-71220D02*
X3256Y-69244D01*
X1280Y-76221D02*
Y-71220D01*
X-11024Y65976D02*
Y79980D01*
X-13500Y63500D02*
X-11024Y65976D01*
X-14173Y68173D02*
Y79980D01*
X13555Y-158500D02*
X19500Y-164445D01*
Y-172000D02*
Y-164445D01*
X15000Y-176500D02*
X19500Y-172000D01*
X15000Y-184500D02*
Y-176500D01*
X5000Y-184500D02*
Y-170500D01*
X7945Y-167555D01*
X13555D01*
X-39000Y106744D02*
X-36756D01*
X-35075Y108425D01*
X-30020D01*
X-39000Y112256D02*
X-35756D01*
X-35000Y111500D01*
X-30095D01*
X-30020Y111575D01*
X-20472Y76028D02*
Y79980D01*
X-23256Y73244D02*
X-20472Y76028D01*
X-23256Y71500D02*
Y73244D01*
X-17323Y71921D02*
Y79980D01*
X-17744Y71500D02*
X-17323Y71921D01*
X-20472Y140020D02*
Y143472D01*
X-22756Y145756D02*
X-20472Y143472D01*
X-22756Y145756D02*
Y148500D01*
X-17323Y140020D02*
Y148421D01*
X-17244Y148500D01*
Y152756D01*
X-44256Y112256D02*
X-39000D01*
X-23256Y66744D02*
Y71500D01*
X11024Y74524D02*
Y79980D01*
X9744Y73244D02*
X11024Y74524D01*
X9744Y70000D02*
Y73244D01*
X14173Y74327D02*
Y79980D01*
Y74327D02*
X15256Y73244D01*
Y70000D02*
Y73244D01*
X9744Y64756D02*
Y70000D01*
X30020Y98976D02*
X38780D01*
X38256Y93244D02*
X39000D01*
X35673Y95827D02*
X38256Y93244D01*
X30020Y95827D02*
X35673D01*
X39000Y93244D02*
X44244D01*
X30020Y124173D02*
X34673D01*
X35756Y125256D01*
X-14173Y140020D02*
Y184827D01*
X-10000Y189000D01*
X-11024Y140020D02*
Y155976D01*
X-19500Y164453D02*
Y188500D01*
X-20000Y189000D02*
X-19500Y188500D01*
X-5000Y194000D02*
X0Y199000D01*
X-5000Y173417D02*
Y194000D01*
X-8268Y170150D02*
X-5000Y173417D01*
X-8268Y170150D02*
X8268D01*
X-8268Y163850D02*
X8268D01*
X9161Y164744D01*
X17000D01*
X17000Y164744D01*
X17000Y160000D02*
Y164744D01*
X-7874Y140020D02*
Y150374D01*
X-8268Y163850D02*
X-1370Y156953D01*
X500D01*
Y151047D02*
X6500D01*
X6500Y151047D01*
X-4724Y140020D02*
Y147776D01*
X-4000Y148500D01*
Y154500D01*
X5500Y176000D02*
X13500D01*
X0Y181500D02*
X5500Y176000D01*
X0Y181500D02*
Y189000D01*
X-1575Y140020D02*
Y146425D01*
X500Y148500D01*
Y151047D01*
X-149232Y73280D02*
Y82126D01*
Y73280D02*
X-148953Y73000D01*
X-143047Y69047D02*
Y73000D01*
X-144595Y67500D02*
X-143047Y69047D01*
X-151000Y67500D02*
X-144595D01*
X-161500Y78000D02*
X-151000Y67500D01*
X-161500Y78000D02*
Y88000D01*
X-159500Y90000D01*
X-149232D01*
X-161500Y88000D02*
Y99000D01*
X-149000Y111500D01*
Y136176D01*
X-141588Y143588D01*
Y149912D01*
X-133000Y158500D01*
X-128500D01*
X-125189Y155189D01*
X-133000Y158500D02*
X-91547Y199953D01*
X-81500D01*
X-66453D01*
X-65000Y198500D01*
Y194232D02*
Y198500D01*
X-81315Y194232D02*
X-72874D01*
X-60000Y165000D02*
Y171000D01*
X-94968Y176532D02*
X-89346D01*
X-132000Y148379D02*
X-130757Y149622D01*
X-132000Y144824D02*
Y148379D01*
X-137412Y139412D02*
X-132000Y144824D01*
X-149232Y97874D02*
Y105768D01*
X-140154Y114847D02*
X-137969D01*
X-136000Y108153D02*
X-135346Y107500D01*
X-123547D01*
X-120047Y95047D02*
Y104000D01*
Y95047D02*
X-120000Y95000D01*
X-41000Y157398D02*
X-23622Y140020D01*
X-41000Y157398D02*
Y189000D01*
X-149232Y82126D02*
X-131626D01*
X-125000Y75500D01*
X-111500D01*
X-82000Y105000D01*
Y123500D01*
Y133000D02*
Y146500D01*
X-137412Y139412D02*
X-131588D01*
X-100500Y170500D01*
X-93500D01*
X-37878Y133622D02*
X-30020D01*
X-134031Y114847D02*
X-95153D01*
X10000Y189000D02*
X17500Y181500D01*
X23000D01*
X30020Y111575D02*
X48075D01*
X52500Y116000D01*
Y146500D01*
X36000Y163000D02*
X52500Y146500D01*
X35500Y163000D02*
Y175000D01*
X40047Y194047D02*
X48000D01*
X30020Y133622D02*
X32000Y135602D01*
Y186000D01*
X40047Y194047D01*
X48000Y199953D02*
X63547D01*
X65000Y198500D01*
Y194232D02*
Y198500D01*
X63547Y199953D02*
X89547D01*
X117588Y171912D01*
Y171588D02*
X128000Y161176D01*
Y158000D02*
Y161176D01*
X125189Y155189D02*
X128000Y158000D01*
Y161176D02*
X145000Y144176D01*
Y115453D02*
Y144176D01*
Y115453D02*
X154453Y106000D01*
Y92547D02*
Y106000D01*
X151906Y90000D02*
X154453Y92547D01*
X149232Y90000D02*
X151906D01*
X149232Y97874D02*
Y105315D01*
X148547Y106000D02*
X149232Y105315D01*
X108536Y131465D02*
X109860D01*
X137758Y129026D02*
X139500Y130767D01*
X-149232Y105768D02*
X-144693Y110307D01*
X-140154Y114847D01*
X139500Y130767D02*
Y133500D01*
X119622Y160757D02*
Y161203D01*
X113412Y167412D02*
X119622Y161203D01*
X72874Y194232D02*
X87268D01*
X90346Y191154D01*
Y180968D02*
Y191154D01*
X83500Y168000D02*
Y178847D01*
X30020Y127323D02*
X34823D01*
X39000Y131500D01*
X44000D01*
X30020Y86378D02*
X42398Y74000D01*
X128500D01*
X134974Y80474D01*
Y126242D01*
X20472Y74028D02*
Y79980D01*
Y74028D02*
X22500Y72000D01*
X36000D01*
X50500Y79000D02*
X58000Y86500D01*
Y150500D01*
X51500Y157000D02*
X58000Y150500D01*
X51500Y157000D02*
Y179000D01*
X54000Y181500D01*
X88468Y177032D02*
X90346D01*
X54000Y181500D02*
X85500D01*
X87000Y178500D02*
X88468Y177032D01*
X87000Y178500D02*
Y180000D01*
X85500Y181500D02*
X87000Y180000D01*
X70000Y165000D02*
X80500D01*
X-1280Y-76221D02*
Y-69779D01*
X-1000Y-69500D01*
X-6531Y-76087D02*
X-6398Y-76221D01*
X44000Y-124126D02*
X44874Y-125000D01*
X-28744Y-164256D02*
X-22000D01*
X-2657Y-140173D02*
X0D01*
X2657D01*
X-6000Y-133484D02*
Y-130953D01*
Y-133484D02*
X-2657Y-136827D01*
X0Y-136827D02*
Y-130953D01*
X6000Y-133484D02*
Y-130953D01*
X2657Y-136827D02*
X6000Y-133484D01*
Y-125047D02*
X9701D01*
X12154Y-127500D01*
X18846Y-125531D02*
X23968D01*
X0Y-125047D02*
Y-120500D01*
X-3000Y-117500D02*
X0Y-120500D01*
X-12154Y-117500D02*
X-3000D01*
X-9701Y-125047D02*
X-6000D01*
X-12154Y-127500D02*
X-9701Y-125047D01*
X-18846Y-134346D02*
Y-129469D01*
X-23968Y-119468D02*
X-18846D01*
X-31500Y-149244D02*
Y-134453D01*
X-37894Y-124547D02*
X-35500D01*
X-39000Y-125654D02*
X-37894Y-124547D01*
X149547Y-81811D02*
Y-74000D01*
X149232Y-82126D02*
X149547Y-81811D01*
X72874Y-194232D02*
X84685D01*
X15000Y-199000D02*
X16500D01*
X44000Y-146500D02*
Y-139874D01*
Y-146500D02*
X44500Y-147000D01*
X138469Y-113847D02*
X143846D01*
X124500Y-107000D02*
X136346D01*
X136500Y-107153D01*
X-56941Y-194047D02*
X-47000D01*
X-57126Y-194232D02*
X-56941Y-194047D01*
X-149232Y-108315D02*
Y-97874D01*
Y-108315D02*
X-148547Y-109000D01*
X-88346Y-187153D02*
Y-181968D01*
X-70453Y-164547D02*
X-70000Y-165000D01*
X6398Y-103779D02*
X8957D01*
X6398Y-108898D02*
Y-103779D01*
Y-108898D02*
X7500Y-110000D01*
X-89346Y180468D02*
X-86815Y183000D01*
X-66000D01*
X-52500Y169500D01*
Y134000D02*
Y169500D01*
X-35024Y98976D02*
X-30020D01*
X-36500Y97500D02*
X-35024Y98976D01*
X-36500Y82500D02*
Y97500D01*
X18846Y-129469D02*
X18878Y-129500D01*
X-34874Y102126D02*
X-30020D01*
X-39500Y97500D02*
X-34874Y102126D01*
X-39500Y81000D02*
Y97500D01*
X-34724Y105276D02*
X-30020D01*
X-42000Y98000D02*
X-34724Y105276D01*
X-42000Y79000D02*
Y98000D01*
X-35724Y114724D02*
X-30020D01*
X-37000Y116000D02*
X-35724Y114724D01*
X-47500Y116000D02*
X-37000D01*
X-49500Y114000D02*
X-47500Y116000D01*
X-49500Y88500D02*
Y114000D01*
X7874Y140020D02*
Y146374D01*
X113412Y167412D02*
Y167485D01*
X109449Y171449D02*
X113412Y167485D01*
X102000Y164000D02*
X105551Y167551D01*
X80500Y165000D02*
X83500Y168000D01*
X109860Y131465D02*
X110761Y132366D01*
X131634D01*
X35756Y125256D02*
X40500D01*
X46000D01*
X30020Y121024D02*
X39220D01*
X40500Y119744D01*
Y115500D02*
Y119744D01*
Y115500D02*
X40500Y115500D01*
X137412Y-140912D02*
Y-140912D01*
X132949Y-136449D02*
X137412Y-140912D01*
Y-127412D01*
X125000Y-128500D02*
X129051Y-132551D01*
X120000Y-102500D02*
X124500Y-107000D01*
X120000Y-102453D02*
Y-95000D01*
Y-102453D02*
X120047Y-102500D01*
X90756Y-185500D02*
Y-180744D01*
X-58000Y-184000D02*
X-52756D01*
X-58000Y-184000D02*
X-58000Y-184000D01*
X-81653Y-180000D02*
Y-168154D01*
X-78047Y-164547D01*
X-70453D01*
X-111912Y-169412D02*
X-111810D01*
X-107949Y-165551D01*
X-104051Y-169449D02*
X-99603Y-165000D01*
X143256Y-74000D02*
X149547D01*
X143256Y-74000D02*
X143256Y-74000D01*
X137744Y-74000D02*
Y-69244D01*
X-148547Y-109000D02*
X-143756D01*
X-143500Y-108744D01*
Y-114256D02*
X-138744D01*
X-130134Y-130866D02*
X-109134D01*
X-108536Y-131465D01*
X3256Y-69244D02*
Y-65000D01*
Y-60000D01*
Y-65000D02*
X8000D01*
X-2256D02*
Y-60000D01*
X-4000Y-66744D02*
X-2256Y-65000D01*
X-4000Y-76059D02*
Y-66744D01*
Y-76059D02*
X-3839Y-76221D01*
X21000Y-92756D02*
X27000D01*
X31744D01*
X32244Y-93256D01*
X23000Y170953D02*
Y175000D01*
X144803Y109744D02*
X148547Y106000D01*
X140000Y109744D02*
X144803D01*
X140000Y115256D02*
Y119500D01*
X48000Y188244D02*
Y194047D01*
X47756Y188000D02*
X48000Y188244D01*
X42244Y182744D02*
Y188000D01*
X-81500Y189244D02*
Y194047D01*
X-81744Y189000D02*
X-81500Y189244D01*
X-92500Y189000D02*
X-87256D01*
X-137412Y138912D02*
Y139412D01*
Y138912D02*
X-133449Y134949D01*
X-129551Y131051D02*
X-129449D01*
X-125500Y135000D01*
X-123547Y107500D02*
X-120047Y104000D01*
X-62000Y173000D02*
X-60000Y171000D01*
X-82653Y178500D02*
X-77153Y173000D01*
X-62000D01*
X-102744Y79000D02*
X-98000D01*
X-98000Y79000D01*
X-56563Y-132346D02*
X-39000D01*
X8268Y170150D02*
X22047D01*
Y170000D02*
X23000Y170953D01*
X7874Y146374D02*
X28000Y166500D01*
X23000Y181500D02*
X28000Y176500D01*
X-33000Y-162500D02*
X-28744Y-158244D01*
X-22000D02*
X-11504D01*
X-11248Y-158500D01*
X-28744Y-158244D02*
X-22500D01*
X-22000D01*
X-31500Y-149244D02*
X-22500Y-158244D01*
X-22250Y-158494D01*
X28000Y166500D02*
Y176500D01*
D36*
X11516Y-83484D02*
Y-76221D01*
X9000Y-86000D02*
X11516Y-83484D01*
X-9000Y-86000D02*
X9000D01*
X-14075Y-80925D02*
X-9000Y-86000D01*
X-14075Y-80925D02*
Y-76221D01*
X61937Y-79000D02*
Y-67437D01*
X51500Y-57000D02*
X61937Y-67437D01*
X32500Y-57000D02*
X51500D01*
X-61937Y-66437D02*
X-56500Y-61000D01*
X-32000D01*
X-61937Y-79000D02*
Y-66437D01*
X-5000Y116500D02*
Y128500D01*
X-77500Y114000D02*
X-67000D01*
X-42953Y-204000D02*
X55232D01*
X-47000Y-199953D02*
X-42953Y-204000D01*
X55232D02*
X65000Y-194232D01*
X-2500Y-103779D02*
Y-89000D01*
Y-103779D02*
X-1421D01*
X-3839D02*
X-2500D01*
X2500D02*
X3839D01*
X2500Y-110500D02*
Y-103779D01*
Y-110500D02*
X5500Y-113500D01*
X-13000Y-103779D02*
Y-87000D01*
X-14075Y-103779D02*
X-11516D01*
X-113500Y136429D02*
X-108536Y131465D01*
X-77500Y157500D02*
X-70000Y165000D01*
X-113500Y136429D02*
Y151000D01*
X-107000Y157500D01*
X-77500D01*
X60000Y155000D02*
X120000Y95000D01*
X60000Y155000D02*
Y165000D01*
X6500Y156953D02*
X11453D01*
X12000Y157500D01*
X11516Y-76221D02*
X14075D01*
X17221D01*
X155453Y-88547D02*
Y-74000D01*
X154000Y-90000D02*
X155453Y-88547D01*
X149232Y-90000D02*
X154000D01*
X155453Y-114047D02*
Y-88547D01*
X141588Y-145088D02*
X144000Y-142676D01*
Y-125500D01*
X155453Y-114047D01*
X125189Y-155189D02*
X126176Y-156176D01*
X131824D01*
X141588Y-146412D01*
Y-145088D01*
X87547Y-200453D02*
X131824Y-156176D01*
X85000Y-200453D02*
X87547D01*
X66953D02*
X85000D01*
X65000Y-198500D02*
X66953Y-200453D01*
X65000Y-198500D02*
Y-194232D01*
X70000Y-165000D02*
X91000D01*
X108536Y-147465D01*
Y-131465D01*
X-62547Y-199953D02*
X-47000D01*
X-65000Y-197500D02*
X-62547Y-199953D01*
X-65000Y-197500D02*
Y-194232D01*
X-89723Y-199953D02*
X-62547D01*
X-116088Y-173588D02*
X-89723Y-199953D01*
X-127500Y-162176D02*
X-116088Y-173588D01*
X-127500Y-162176D02*
Y-157500D01*
X-125189Y-155189D01*
X-144000Y-145676D02*
X-127500Y-162176D01*
X-144000Y-145676D02*
Y-124500D01*
X-154453Y-114047D02*
X-144000Y-124500D01*
X-154453Y-114047D02*
Y-109000D01*
Y-93453D01*
X-151000Y-90000D01*
X-149232D01*
X23720Y-103779D02*
X28500Y-99000D01*
X11516Y-103779D02*
X14075D01*
X23720D01*
X67012Y-125000D02*
Y-116012D01*
X32244Y-93256D02*
X35756D01*
X44000Y-101500D01*
X20500Y-113500D02*
X35000Y-99000D01*
X5500Y-113500D02*
X20500D01*
X1280Y-103779D02*
X3839D01*
X44000Y-109244D02*
Y-101500D01*
X17221Y-76221D02*
X21000Y-80000D01*
Y-87244D02*
Y-80000D01*
Y-87244D02*
X27000D01*
X38244D01*
X67012Y-116012D01*
X47500Y-180347D02*
Y-169000D01*
X51500Y-165000D01*
X60000D01*
D37*
X-120000Y-95000D02*
X-60000Y-155000D01*
Y-165000D02*
Y-155000D01*
X73000Y-119012D02*
Y-102063D01*
X67012Y-125000D02*
X73000Y-119012D01*
X54063Y-93126D02*
Y-79000D01*
Y-93126D02*
X63000Y-102063D01*
X44874Y-125000D02*
X55988D01*
X13555Y-149445D02*
X18681D01*
X44000Y-124126D01*
X73000Y-119012D02*
X96083D01*
X108536Y-131465D01*
X44000Y-124126D02*
Y-114756D01*
X-8000Y-109500D02*
Y-103779D01*
D38*
X51000Y42500D02*
D03*
Y-42500D02*
D03*
X-51000D02*
D03*
Y42500D02*
D03*
D39*
X-25000Y-184500D02*
D03*
X94000Y-70000D02*
D03*
X-15000Y-199000D02*
D03*
X-20000Y189000D02*
D03*
D40*
X-15000Y-184500D02*
D03*
X-5000D02*
D03*
X5000D02*
D03*
X15000D02*
D03*
X25000D02*
D03*
X104000Y-70000D02*
D03*
X-6500Y-34000D02*
D03*
X6500D02*
D03*
X15000Y-199000D02*
D03*
X5000D02*
D03*
X-5000D02*
D03*
X20000Y199000D02*
D03*
Y189000D02*
D03*
X10000Y199000D02*
D03*
Y189000D02*
D03*
X0Y199000D02*
D03*
Y189000D02*
D03*
X-10000Y199000D02*
D03*
Y189000D02*
D03*
X-20000Y199000D02*
D03*
X-41000Y189000D02*
D03*
D41*
X-6500Y-44000D02*
D03*
X6500D02*
D03*
X-41000Y199000D02*
D03*
D42*
X149232Y90000D02*
D03*
Y97874D02*
D03*
Y82126D02*
D03*
X-149232Y90000D02*
D03*
Y82126D02*
D03*
Y97874D02*
D03*
X149232Y-90000D02*
D03*
Y-82126D02*
D03*
Y-97874D02*
D03*
X-149232Y-90000D02*
D03*
Y-97874D02*
D03*
Y-82126D02*
D03*
D43*
X125189Y155189D02*
D03*
X119622Y160757D02*
D03*
X130757Y149622D02*
D03*
X-125189Y-155189D02*
D03*
X-119622Y-160757D02*
D03*
X-130757Y-149622D02*
D03*
D44*
X65000Y194232D02*
D03*
X57126D02*
D03*
X72874D02*
D03*
X-65000D02*
D03*
X-72874D02*
D03*
X-57126D02*
D03*
X65000Y-194232D02*
D03*
X72874D02*
D03*
X57126D02*
D03*
X-65000D02*
D03*
X-57126D02*
D03*
X-72874D02*
D03*
D45*
X-125189Y155189D02*
D03*
X-130757Y149622D02*
D03*
X-119622Y160757D02*
D03*
X125189Y-155189D02*
D03*
X130757Y-149622D02*
D03*
X119622Y-160757D02*
D03*
D46*
X60000Y165000D02*
D03*
X70000D02*
D03*
X-108536Y131465D02*
D03*
X-101464Y138535D02*
D03*
X120000Y95000D02*
D03*
Y85000D02*
D03*
X-70000Y165000D02*
D03*
X-60000D02*
D03*
X101464Y138535D02*
D03*
X108536Y131465D02*
D03*
X-120000Y85000D02*
D03*
Y95000D02*
D03*
X70000Y-165000D02*
D03*
X60000D02*
D03*
X108536Y-131465D02*
D03*
X101464Y-138535D02*
D03*
X-120000Y-95000D02*
D03*
Y-85000D02*
D03*
X-60000Y-165000D02*
D03*
X-70000D02*
D03*
X-101464Y-138535D02*
D03*
X-108536Y-131465D02*
D03*
X120000Y-85000D02*
D03*
Y-95000D02*
D03*
D47*
X-56563Y-112000D02*
D03*
Y-132000D02*
D03*
Y-122000D02*
D03*
X63000Y-102063D02*
D03*
X83000D02*
D03*
X73000D02*
D03*
D48*
X-8500Y-10500D02*
D03*
X-8000Y-19000D02*
D03*
X15000Y-85000D02*
D03*
X-1500Y-82500D02*
D03*
X-2500Y-89000D02*
D03*
X49500Y-104500D02*
D03*
X32500Y-57000D02*
D03*
X-67000Y-85000D02*
D03*
X-73000Y-81000D02*
D03*
X-54063Y-65563D02*
D03*
X29000Y-48000D02*
D03*
X25000Y-81500D02*
D03*
X-57500Y56000D02*
D03*
X-48000Y-86500D02*
D03*
X-43500Y-85500D02*
D03*
X-33500Y-116750D02*
D03*
X7500Y-158500D02*
D03*
X-11248Y-167748D02*
D03*
X-57000Y60500D02*
D03*
X-65000Y69000D02*
D03*
X-44000D02*
D03*
X-4500Y90000D02*
D03*
X5500Y95000D02*
D03*
X22000Y89000D02*
D03*
X-61000Y74000D02*
D03*
X-138000Y73000D02*
D03*
X-62500Y-61500D02*
D03*
X80000Y91000D02*
D03*
X63000Y90500D02*
D03*
Y79500D02*
D03*
X55500Y-55000D02*
D03*
X67000Y79500D02*
D03*
X60000Y-55000D02*
D03*
X70000Y-55500D02*
D03*
X73500Y80500D02*
D03*
Y90500D02*
D03*
X-16500Y120500D02*
D03*
X67000Y90500D02*
D03*
X13500Y110000D02*
D03*
X8500Y107500D02*
D03*
X80000Y80000D02*
D03*
X66500Y-52500D02*
D03*
X-5000Y116500D02*
D03*
Y128500D02*
D03*
X-67000Y114000D02*
D03*
X-77500D02*
D03*
X46000Y114500D02*
D03*
Y108500D02*
D03*
X43500Y143000D02*
D03*
X-52500Y121500D02*
D03*
X-8000Y93500D02*
D03*
X-15000Y101000D02*
D03*
X11500Y-12000D02*
D03*
X-65000Y-53500D02*
D03*
X-40447Y-159000D02*
D03*
Y-143000D02*
D03*
X-32000Y-74000D02*
D03*
X-35500Y-67500D02*
D03*
X-37000Y-114500D02*
D03*
X-44000Y-139500D02*
D03*
X-36000Y-171000D02*
D03*
X0Y-153500D02*
D03*
X-56000Y80500D02*
D03*
X-39500Y-83000D02*
D03*
X-53000Y85000D02*
D03*
X-39500Y-102500D02*
D03*
X-96500Y-127000D02*
D03*
X-45500Y74000D02*
D03*
X-22500Y87500D02*
D03*
X22500Y115500D02*
D03*
X-45500Y92000D02*
D03*
X-20000D02*
D03*
X-68500Y81000D02*
D03*
X-72000Y89000D02*
D03*
Y133000D02*
D03*
Y143000D02*
D03*
X3500Y147000D02*
D03*
X-68500Y-50500D02*
D03*
X-32000Y-61000D02*
D03*
X-99000Y-89000D02*
D03*
X-21500Y-97500D02*
D03*
X-23000Y-115500D02*
D03*
X-29500D02*
D03*
X-139500Y-132500D02*
D03*
X-83850Y-114850D02*
D03*
X-79000Y-80000D02*
D03*
X24000Y-56500D02*
D03*
X17000D02*
D03*
X2761Y-55239D02*
D03*
X8000Y-65000D02*
D03*
X29000Y-112500D02*
D03*
X12000Y-95500D02*
D03*
X-13000Y-87000D02*
D03*
X28500Y-99000D02*
D03*
X32244Y-93256D02*
D03*
X-20000Y-108500D02*
D03*
X-46500Y-119500D02*
D03*
X-21500Y-60000D02*
D03*
X-90453Y-73547D02*
D03*
X-13500Y63500D02*
D03*
X-14173Y68173D02*
D03*
X-17244Y152756D02*
D03*
X-44256Y112256D02*
D03*
X-23256Y66744D02*
D03*
X9744Y64756D02*
D03*
X44244Y93244D02*
D03*
X-11024Y155976D02*
D03*
X-19500Y164453D02*
D03*
X17000Y160000D02*
D03*
X-7874Y150374D02*
D03*
X-4000Y154500D02*
D03*
X13500Y176000D02*
D03*
X-94968Y176532D02*
D03*
X-144693Y110307D02*
D03*
X-82000Y123500D02*
D03*
Y133000D02*
D03*
Y146500D02*
D03*
X-93500Y170500D02*
D03*
X23000Y175000D02*
D03*
X35500D02*
D03*
X139500Y133500D02*
D03*
X49000Y143500D02*
D03*
X44000Y131500D02*
D03*
X12000Y157500D02*
D03*
X36000Y72000D02*
D03*
X50500Y79000D02*
D03*
X-1000Y-69500D02*
D03*
X-28744Y-164256D02*
D03*
X23968Y-125531D02*
D03*
X-18846Y-134346D02*
D03*
X-23968Y-119468D02*
D03*
X44500Y-147000D02*
D03*
X143846Y-113847D02*
D03*
X-88346Y-187153D02*
D03*
X7500Y-110000D02*
D03*
X35000Y-99000D02*
D03*
X-8000Y-109500D02*
D03*
X-52500Y134000D02*
D03*
X-49500Y88500D02*
D03*
X102000Y164000D02*
D03*
X40500Y115500D02*
D03*
X125000Y-128500D02*
D03*
X90756Y-180744D02*
D03*
X-58000Y-184000D02*
D03*
X-99603Y-165000D02*
D03*
X137744Y-69244D02*
D03*
X-138744Y-114256D02*
D03*
X140000Y119500D02*
D03*
X42244Y182744D02*
D03*
X-92500Y189000D02*
D03*
X-125500Y135000D02*
D03*
X-98000Y79000D02*
D03*
M02*
