%FSLAX25Y25*%
%MOIN*%
G70*
G01*
G75*
G04 Layer_Color=8388736*
%ADD10R,0.06299X0.11811*%
%ADD11R,0.04921X0.21654*%
%ADD12R,0.03543X0.02756*%
%ADD13R,0.03150X0.01575*%
%ADD14R,0.01772X0.01772*%
%ADD15R,0.01575X0.01772*%
%ADD16R,0.06299X0.10630*%
G04:AMPARAMS|DCode=17|XSize=35.43mil|YSize=31.5mil|CornerRadius=0mil|HoleSize=0mil|Usage=FLASHONLY|Rotation=135.000|XOffset=0mil|YOffset=0mil|HoleType=Round|Shape=Rectangle|*
%AMROTATEDRECTD17*
4,1,4,0.02366,-0.00139,0.00139,-0.02366,-0.02366,0.00139,-0.00139,0.02366,0.02366,-0.00139,0.0*
%
%ADD17ROTATEDRECTD17*%

%ADD18R,0.09843X0.06693*%
%ADD19R,0.03543X0.03150*%
%ADD20R,0.06299X0.12992*%
%ADD21R,0.06299X0.05118*%
%ADD22R,0.03937X0.04331*%
%ADD23R,0.03150X0.03543*%
G04:AMPARAMS|DCode=24|XSize=35.43mil|YSize=31.5mil|CornerRadius=0mil|HoleSize=0mil|Usage=FLASHONLY|Rotation=225.000|XOffset=0mil|YOffset=0mil|HoleType=Round|Shape=Rectangle|*
%AMROTATEDRECTD24*
4,1,4,0.00139,0.02366,0.02366,0.00139,-0.00139,-0.02366,-0.02366,-0.00139,0.00139,0.02366,0.0*
%
%ADD24ROTATEDRECTD24*%

%ADD25O,0.01378X0.06693*%
%ADD26R,0.02756X0.03543*%
G04:AMPARAMS|DCode=27|XSize=35.43mil|YSize=27.56mil|CornerRadius=0mil|HoleSize=0mil|Usage=FLASHONLY|Rotation=315.000|XOffset=0mil|YOffset=0mil|HoleType=Round|Shape=Rectangle|*
%AMROTATEDRECTD27*
4,1,4,-0.02227,0.00278,-0.00278,0.02227,0.02227,-0.00278,0.00278,-0.02227,-0.02227,0.00278,0.0*
%
%ADD27ROTATEDRECTD27*%

G04:AMPARAMS|DCode=28|XSize=35.43mil|YSize=27.56mil|CornerRadius=0mil|HoleSize=0mil|Usage=FLASHONLY|Rotation=45.000|XOffset=0mil|YOffset=0mil|HoleType=Round|Shape=Rectangle|*
%AMROTATEDRECTD28*
4,1,4,-0.00278,-0.02227,-0.02227,-0.00278,0.00278,0.02227,0.02227,0.00278,-0.00278,-0.02227,0.0*
%
%ADD28ROTATEDRECTD28*%

G04:AMPARAMS|DCode=29|XSize=15.75mil|YSize=31.5mil|CornerRadius=0mil|HoleSize=0mil|Usage=FLASHONLY|Rotation=225.000|XOffset=0mil|YOffset=0mil|HoleType=Round|Shape=Rectangle|*
%AMROTATEDRECTD29*
4,1,4,-0.00557,0.01670,0.01670,-0.00557,0.00557,-0.01670,-0.01670,0.00557,-0.00557,0.01670,0.0*
%
%ADD29ROTATEDRECTD29*%

%ADD30R,0.01575X0.03150*%
%ADD31O,0.02165X0.06890*%
%ADD32O,0.06890X0.02165*%
%ADD33R,0.03937X0.03937*%
%ADD34R,0.03937X0.03937*%
%ADD35C,0.01000*%
%ADD36C,0.02000*%
%ADD37C,0.03000*%
%ADD38C,0.12000*%
%ADD39R,0.05906X0.05906*%
%ADD40C,0.05906*%
%ADD41R,0.05906X0.05906*%
%ADD42R,0.04921X0.04921*%
%ADD43P,0.06960X4X180.0*%
%ADD44R,0.04921X0.04921*%
%ADD45P,0.06960X4X270.0*%
%ADD46C,0.07000*%
%ADD47C,0.07874*%
%ADD48C,0.02500*%
%ADD49O,0.02362X0.00984*%
%ADD50O,0.00984X0.02362*%
%ADD51R,0.10236X0.10630*%
%ADD52C,0.00984*%
%ADD53C,0.02362*%
%ADD54C,0.00394*%
%ADD55C,0.00500*%
%ADD56C,0.00787*%
%ADD57C,0.00800*%
%ADD58R,0.03150X0.03543*%
%ADD59R,0.07099X0.12611*%
%ADD60R,0.05721X0.22453*%
%ADD61R,0.04343X0.03556*%
%ADD62R,0.03950X0.02375*%
%ADD63R,0.02572X0.02572*%
%ADD64R,0.02375X0.02572*%
%ADD65R,0.07099X0.11430*%
G04:AMPARAMS|DCode=66|XSize=43.43mil|YSize=39.5mil|CornerRadius=0mil|HoleSize=0mil|Usage=FLASHONLY|Rotation=135.000|XOffset=0mil|YOffset=0mil|HoleType=Round|Shape=Rectangle|*
%AMROTATEDRECTD66*
4,1,4,0.02932,-0.00139,0.00139,-0.02932,-0.02932,0.00139,-0.00139,0.02932,0.02932,-0.00139,0.0*
%
%ADD66ROTATEDRECTD66*%

%ADD67R,0.10642X0.07493*%
%ADD68R,0.04343X0.03950*%
%ADD69R,0.07099X0.13792*%
%ADD70R,0.07099X0.05918*%
%ADD71R,0.04737X0.05131*%
%ADD72R,0.03950X0.04343*%
G04:AMPARAMS|DCode=73|XSize=43.43mil|YSize=39.5mil|CornerRadius=0mil|HoleSize=0mil|Usage=FLASHONLY|Rotation=225.000|XOffset=0mil|YOffset=0mil|HoleType=Round|Shape=Rectangle|*
%AMROTATEDRECTD73*
4,1,4,0.00139,0.02932,0.02932,0.00139,-0.00139,-0.02932,-0.02932,-0.00139,0.00139,0.02932,0.0*
%
%ADD73ROTATEDRECTD73*%

%ADD74O,0.02178X0.07493*%
%ADD75R,0.03556X0.04343*%
G04:AMPARAMS|DCode=76|XSize=43.43mil|YSize=35.56mil|CornerRadius=0mil|HoleSize=0mil|Usage=FLASHONLY|Rotation=315.000|XOffset=0mil|YOffset=0mil|HoleType=Round|Shape=Rectangle|*
%AMROTATEDRECTD76*
4,1,4,-0.02793,0.00278,-0.00278,0.02793,0.02793,-0.00278,0.00278,-0.02793,-0.02793,0.00278,0.0*
%
%ADD76ROTATEDRECTD76*%

G04:AMPARAMS|DCode=77|XSize=43.43mil|YSize=35.56mil|CornerRadius=0mil|HoleSize=0mil|Usage=FLASHONLY|Rotation=45.000|XOffset=0mil|YOffset=0mil|HoleType=Round|Shape=Rectangle|*
%AMROTATEDRECTD77*
4,1,4,-0.00278,-0.02793,-0.02793,-0.00278,0.00278,0.02793,0.02793,0.00278,-0.00278,-0.02793,0.0*
%
%ADD77ROTATEDRECTD77*%

G04:AMPARAMS|DCode=78|XSize=23.75mil|YSize=39.5mil|CornerRadius=0mil|HoleSize=0mil|Usage=FLASHONLY|Rotation=225.000|XOffset=0mil|YOffset=0mil|HoleType=Round|Shape=Rectangle|*
%AMROTATEDRECTD78*
4,1,4,-0.00557,0.02236,0.02236,-0.00557,0.00557,-0.02236,-0.02236,0.00557,-0.00557,0.02236,0.0*
%
%ADD78ROTATEDRECTD78*%

%ADD79R,0.02375X0.03950*%
%ADD80O,0.02965X0.07690*%
%ADD81O,0.07690X0.02965*%
%ADD82R,0.04737X0.04737*%
%ADD83R,0.04737X0.04737*%
%ADD84C,0.12800*%
%ADD85R,0.06706X0.06706*%
%ADD86C,0.06706*%
%ADD87R,0.06706X0.06706*%
%ADD88R,0.05721X0.05721*%
%ADD89P,0.08091X4X180.0*%
%ADD90R,0.05721X0.05721*%
%ADD91P,0.08091X4X270.0*%
%ADD92C,0.07800*%
%ADD93C,0.08674*%
%ADD94C,0.03300*%
D59*
X71386Y-70142D02*
D03*
X44614D02*
D03*
X-44614D02*
D03*
X-71386D02*
D03*
D60*
X61937Y-79000D02*
D03*
X54063D02*
D03*
X-54063D02*
D03*
X-61937D02*
D03*
D61*
X6000Y-125047D02*
D03*
Y-130953D02*
D03*
X0Y-125047D02*
D03*
Y-130953D02*
D03*
X-6000Y-125047D02*
D03*
Y-130953D02*
D03*
X-33000Y-127047D02*
D03*
Y-132953D02*
D03*
X48000Y199953D02*
D03*
Y194047D02*
D03*
X-81500Y199953D02*
D03*
Y194047D02*
D03*
X85000Y-200453D02*
D03*
Y-194547D02*
D03*
X-47000Y-199953D02*
D03*
Y-194047D02*
D03*
X500Y151047D02*
D03*
Y156953D02*
D03*
X6500Y156953D02*
D03*
Y151047D02*
D03*
D62*
X18846Y-129469D02*
D03*
Y-125531D02*
D03*
X12154Y-127500D02*
D03*
X-18846Y-115532D02*
D03*
Y-119468D02*
D03*
X-12154Y-117500D02*
D03*
X-18846Y-125531D02*
D03*
Y-129469D02*
D03*
X-12154Y-127500D02*
D03*
X90346Y177032D02*
D03*
Y180968D02*
D03*
X83653Y179000D02*
D03*
X-89346Y180468D02*
D03*
Y176532D02*
D03*
X-82653Y178500D02*
D03*
X40653Y-178532D02*
D03*
Y-182468D02*
D03*
X47346Y-180500D02*
D03*
X-88346Y-178032D02*
D03*
Y-181968D02*
D03*
X-81653Y-180000D02*
D03*
D63*
X2657Y-140173D02*
D03*
X-2657D02*
D03*
Y-136827D02*
D03*
X2657D02*
D03*
D64*
X0Y-140173D02*
D03*
Y-136827D02*
D03*
D65*
X67012Y-125000D02*
D03*
X55988D02*
D03*
D66*
X105551Y167551D02*
D03*
X109449Y171449D02*
D03*
D67*
X44000Y-124126D02*
D03*
Y-139874D02*
D03*
D68*
X140000Y115256D02*
D03*
Y109744D02*
D03*
X46000Y125256D02*
D03*
Y119744D02*
D03*
X39000Y93244D02*
D03*
Y98756D02*
D03*
X-39000Y112256D02*
D03*
Y106744D02*
D03*
X17000Y164744D02*
D03*
Y170256D02*
D03*
X40500Y125256D02*
D03*
Y119744D02*
D03*
X-143500Y-108744D02*
D03*
Y-114256D02*
D03*
X21000Y-87244D02*
D03*
Y-92756D02*
D03*
X27000Y-87244D02*
D03*
Y-92756D02*
D03*
X-22000Y-158244D02*
D03*
Y-163756D02*
D03*
X44000Y-109244D02*
D03*
Y-114756D02*
D03*
D69*
X-11248Y-158500D02*
D03*
D70*
X13555Y-167555D02*
D03*
Y-158500D02*
D03*
Y-149445D02*
D03*
D71*
X-39000Y-125654D02*
D03*
Y-132346D02*
D03*
D72*
X42244Y188000D02*
D03*
X47756D02*
D03*
X-87256Y189000D02*
D03*
X-81744D02*
D03*
X-102744Y79000D02*
D03*
X-108256D02*
D03*
X-23256Y71500D02*
D03*
X-17744D02*
D03*
X9744Y70000D02*
D03*
X15256D02*
D03*
X-17244Y148500D02*
D03*
X-22756D02*
D03*
X-84744Y-85000D02*
D03*
X-90256D02*
D03*
X-47244Y-184000D02*
D03*
X-52756D02*
D03*
X85244Y-185500D02*
D03*
X90756D02*
D03*
X143256Y-74000D02*
D03*
X137744D02*
D03*
X-2256Y-65000D02*
D03*
X3256D02*
D03*
X-2256Y-60000D02*
D03*
X3256D02*
D03*
D73*
X-129551Y131051D02*
D03*
X-133449Y134949D02*
D03*
X-107949Y-165551D02*
D03*
X-104051Y-169449D02*
D03*
X132949Y-136449D02*
D03*
X129051Y-132551D02*
D03*
D74*
X14075Y-76221D02*
D03*
X11516D02*
D03*
X8957D02*
D03*
X6398D02*
D03*
X3839D02*
D03*
X1280D02*
D03*
X-1280D02*
D03*
X-3839D02*
D03*
X-6398D02*
D03*
X-8957D02*
D03*
X-11516D02*
D03*
X-14075D02*
D03*
X14075Y-103779D02*
D03*
X11516D02*
D03*
X8957D02*
D03*
X6398D02*
D03*
X3839D02*
D03*
X1280D02*
D03*
X-1280D02*
D03*
X-3839D02*
D03*
X-6398D02*
D03*
X-8957D02*
D03*
X-11516D02*
D03*
X-14075D02*
D03*
D75*
X154453Y106000D02*
D03*
X148547D02*
D03*
X-143047Y73000D02*
D03*
X-148953D02*
D03*
X155453Y-74000D02*
D03*
X149547D02*
D03*
X-154453Y-109000D02*
D03*
X-148547D02*
D03*
X-84547Y-79000D02*
D03*
X-90453D02*
D03*
X22047Y170000D02*
D03*
X27953D02*
D03*
D76*
X117588Y171588D02*
D03*
X113412Y167412D02*
D03*
X-116088Y-173588D02*
D03*
X-111912Y-169412D02*
D03*
D77*
X-141588Y143588D02*
D03*
X-137412Y139412D02*
D03*
X141588Y-145088D02*
D03*
X137412Y-140912D02*
D03*
D78*
X134974Y126242D02*
D03*
X137758Y129026D02*
D03*
X131634Y132366D02*
D03*
X-133474Y-124742D02*
D03*
X-136258Y-127526D02*
D03*
X-130134Y-130866D02*
D03*
D79*
X-134031Y114847D02*
D03*
X-137969D02*
D03*
X-136000Y108153D02*
D03*
X134531Y-113847D02*
D03*
X138469D02*
D03*
X136500Y-107153D02*
D03*
D80*
X23622Y140020D02*
D03*
X20472D02*
D03*
X17323D02*
D03*
X14173D02*
D03*
X11024D02*
D03*
X7874D02*
D03*
X4724D02*
D03*
X1575D02*
D03*
X-1575D02*
D03*
X-4724D02*
D03*
X-7874D02*
D03*
X-11024D02*
D03*
X-14173D02*
D03*
X-17323D02*
D03*
X-20472D02*
D03*
X-23622D02*
D03*
X-23622Y79980D02*
D03*
X-20472D02*
D03*
X-17323D02*
D03*
X-14173D02*
D03*
X-11024D02*
D03*
X-7874D02*
D03*
X-4724D02*
D03*
X-1575D02*
D03*
X1575D02*
D03*
X4724D02*
D03*
X7874D02*
D03*
X11024D02*
D03*
X14173D02*
D03*
X17323D02*
D03*
X20472D02*
D03*
X23622D02*
D03*
D81*
X-30020Y133622D02*
D03*
Y130473D02*
D03*
Y127323D02*
D03*
Y124173D02*
D03*
Y121024D02*
D03*
Y117874D02*
D03*
Y114724D02*
D03*
Y111575D02*
D03*
Y108425D02*
D03*
Y105276D02*
D03*
Y102126D02*
D03*
Y98976D02*
D03*
Y95827D02*
D03*
Y92677D02*
D03*
Y89528D02*
D03*
Y86378D02*
D03*
X30020Y86378D02*
D03*
Y89528D02*
D03*
Y92677D02*
D03*
Y95827D02*
D03*
Y98976D02*
D03*
Y102126D02*
D03*
Y105276D02*
D03*
Y108425D02*
D03*
Y111575D02*
D03*
Y114724D02*
D03*
Y117874D02*
D03*
Y121024D02*
D03*
Y124173D02*
D03*
Y127323D02*
D03*
Y130473D02*
D03*
Y133622D02*
D03*
D82*
X-90150Y-109768D02*
D03*
Y-93232D02*
D03*
X-83850Y-109768D02*
D03*
Y-93232D02*
D03*
D83*
X-8268Y170150D02*
D03*
X8268D02*
D03*
X-8268Y163850D02*
D03*
X8268D02*
D03*
D84*
X51000Y42500D02*
D03*
Y-42500D02*
D03*
X-51000D02*
D03*
Y42500D02*
D03*
D85*
X-25000Y-184500D02*
D03*
X94000Y-70000D02*
D03*
X-15000Y-199000D02*
D03*
X-20000Y189000D02*
D03*
D86*
X-15000Y-184500D02*
D03*
X-5000D02*
D03*
X5000D02*
D03*
X15000D02*
D03*
X25000D02*
D03*
X104000Y-70000D02*
D03*
X-6500Y-34000D02*
D03*
X6500D02*
D03*
X15000Y-199000D02*
D03*
X5000D02*
D03*
X-5000D02*
D03*
X20000Y199000D02*
D03*
Y189000D02*
D03*
X10000Y199000D02*
D03*
Y189000D02*
D03*
X0Y199000D02*
D03*
Y189000D02*
D03*
X-10000Y199000D02*
D03*
Y189000D02*
D03*
X-20000Y199000D02*
D03*
X-41000Y189000D02*
D03*
D87*
X-6500Y-44000D02*
D03*
X6500D02*
D03*
X-41000Y199000D02*
D03*
D88*
X149232Y90000D02*
D03*
Y97874D02*
D03*
Y82126D02*
D03*
X-149232Y90000D02*
D03*
Y82126D02*
D03*
Y97874D02*
D03*
X149232Y-90000D02*
D03*
Y-82126D02*
D03*
Y-97874D02*
D03*
X-149232Y-90000D02*
D03*
Y-97874D02*
D03*
Y-82126D02*
D03*
D89*
X125189Y155189D02*
D03*
X119622Y160757D02*
D03*
X130757Y149622D02*
D03*
X-125189Y-155189D02*
D03*
X-119622Y-160757D02*
D03*
X-130757Y-149622D02*
D03*
D90*
X65000Y194232D02*
D03*
X57126D02*
D03*
X72874D02*
D03*
X-65000D02*
D03*
X-72874D02*
D03*
X-57126D02*
D03*
X65000Y-194232D02*
D03*
X72874D02*
D03*
X57126D02*
D03*
X-65000D02*
D03*
X-57126D02*
D03*
X-72874D02*
D03*
D91*
X-125189Y155189D02*
D03*
X-130757Y149622D02*
D03*
X-119622Y160757D02*
D03*
X125189Y-155189D02*
D03*
X130757Y-149622D02*
D03*
X119622Y-160757D02*
D03*
D92*
X60000Y165000D02*
D03*
X70000D02*
D03*
X-108536Y131465D02*
D03*
X-101464Y138535D02*
D03*
X120000Y95000D02*
D03*
Y85000D02*
D03*
X-70000Y165000D02*
D03*
X-60000D02*
D03*
X101464Y138535D02*
D03*
X108536Y131465D02*
D03*
X-120000Y85000D02*
D03*
Y95000D02*
D03*
X70000Y-165000D02*
D03*
X60000D02*
D03*
X108536Y-131465D02*
D03*
X101464Y-138535D02*
D03*
X-120000Y-95000D02*
D03*
Y-85000D02*
D03*
X-60000Y-165000D02*
D03*
X-70000D02*
D03*
X-101464Y-138535D02*
D03*
X-108536Y-131465D02*
D03*
X120000Y-85000D02*
D03*
Y-95000D02*
D03*
D93*
X-56563Y-112000D02*
D03*
Y-132000D02*
D03*
Y-122000D02*
D03*
X63000Y-102063D02*
D03*
X83000D02*
D03*
X73000D02*
D03*
D94*
X-8500Y-10500D02*
D03*
X-8000Y-19000D02*
D03*
X15000Y-85000D02*
D03*
X-1500Y-82500D02*
D03*
X-2500Y-89000D02*
D03*
X49500Y-104500D02*
D03*
X32500Y-57000D02*
D03*
X-67000Y-85000D02*
D03*
X-73000Y-81000D02*
D03*
X-54063Y-65563D02*
D03*
X29000Y-48000D02*
D03*
X25000Y-81500D02*
D03*
X-57500Y56000D02*
D03*
X-48000Y-86500D02*
D03*
X-43500Y-85500D02*
D03*
X-33500Y-116750D02*
D03*
X7500Y-158500D02*
D03*
X-11248Y-167748D02*
D03*
X-57000Y60500D02*
D03*
X-65000Y69000D02*
D03*
X-44000D02*
D03*
X-4500Y90000D02*
D03*
X5500Y95000D02*
D03*
X22000Y89000D02*
D03*
X-61000Y74000D02*
D03*
X-138000Y73000D02*
D03*
X-62500Y-61500D02*
D03*
X80000Y91000D02*
D03*
X63000Y90500D02*
D03*
Y79500D02*
D03*
X55500Y-55000D02*
D03*
X67000Y79500D02*
D03*
X60000Y-55000D02*
D03*
X70000Y-55500D02*
D03*
X73500Y80500D02*
D03*
Y90500D02*
D03*
X-16500Y120500D02*
D03*
X67000Y90500D02*
D03*
X13500Y110000D02*
D03*
X8500Y107500D02*
D03*
X80000Y80000D02*
D03*
X66500Y-52500D02*
D03*
X-5000Y116500D02*
D03*
Y128500D02*
D03*
X-67000Y114000D02*
D03*
X-77500D02*
D03*
X46000Y114500D02*
D03*
Y108500D02*
D03*
X43500Y143000D02*
D03*
X-52500Y121500D02*
D03*
X-8000Y93500D02*
D03*
X-15000Y101000D02*
D03*
X11500Y-12000D02*
D03*
X-65000Y-53500D02*
D03*
X-40447Y-159000D02*
D03*
Y-143000D02*
D03*
X-32000Y-74000D02*
D03*
X-35500Y-67500D02*
D03*
X-37000Y-114500D02*
D03*
X-44000Y-139500D02*
D03*
X-36000Y-171000D02*
D03*
X0Y-153500D02*
D03*
X-56000Y80500D02*
D03*
X-39500Y-83000D02*
D03*
X-53000Y85000D02*
D03*
X-39500Y-102500D02*
D03*
X-96500Y-127000D02*
D03*
X-45500Y74000D02*
D03*
X-22500Y87500D02*
D03*
X22500Y115500D02*
D03*
X-45500Y92000D02*
D03*
X-20000D02*
D03*
X-68500Y81000D02*
D03*
X-72000Y89000D02*
D03*
Y133000D02*
D03*
Y143000D02*
D03*
X3500Y147000D02*
D03*
X-68500Y-50500D02*
D03*
X-32000Y-61000D02*
D03*
X-99000Y-89000D02*
D03*
X-21500Y-97500D02*
D03*
X-23000Y-115500D02*
D03*
X-29500D02*
D03*
X-139500Y-132500D02*
D03*
X-83850Y-114850D02*
D03*
X-79000Y-80000D02*
D03*
X24000Y-56500D02*
D03*
X17000D02*
D03*
X2761Y-55239D02*
D03*
X8000Y-65000D02*
D03*
X29000Y-112500D02*
D03*
X12000Y-95500D02*
D03*
X-13000Y-87000D02*
D03*
X28500Y-99000D02*
D03*
X32244Y-93256D02*
D03*
X-20000Y-108500D02*
D03*
X-46500Y-119500D02*
D03*
X-21500Y-60000D02*
D03*
X-90453Y-73547D02*
D03*
X-13500Y63500D02*
D03*
X-14173Y68173D02*
D03*
X-17244Y152756D02*
D03*
X-44256Y112256D02*
D03*
X-23256Y66744D02*
D03*
X9744Y64756D02*
D03*
X44244Y93244D02*
D03*
X-11024Y155976D02*
D03*
X-19500Y164453D02*
D03*
X17000Y160000D02*
D03*
X-7874Y150374D02*
D03*
X-4000Y154500D02*
D03*
X13500Y176000D02*
D03*
X-94968Y176532D02*
D03*
X-144693Y110307D02*
D03*
X-82000Y123500D02*
D03*
Y133000D02*
D03*
Y146500D02*
D03*
X-93500Y170500D02*
D03*
X23000Y175000D02*
D03*
X35500D02*
D03*
X139500Y133500D02*
D03*
X49000Y143500D02*
D03*
X44000Y131500D02*
D03*
X12000Y157500D02*
D03*
X36000Y72000D02*
D03*
X50500Y79000D02*
D03*
X-1000Y-69500D02*
D03*
X-28744Y-164256D02*
D03*
X23968Y-125531D02*
D03*
X-18846Y-134346D02*
D03*
X-23968Y-119468D02*
D03*
X44500Y-147000D02*
D03*
X143846Y-113847D02*
D03*
X-88346Y-187153D02*
D03*
X7500Y-110000D02*
D03*
X35000Y-99000D02*
D03*
X-8000Y-109500D02*
D03*
X-52500Y134000D02*
D03*
X-49500Y88500D02*
D03*
X102000Y164000D02*
D03*
X40500Y115500D02*
D03*
X125000Y-128500D02*
D03*
X90756Y-180744D02*
D03*
X-58000Y-184000D02*
D03*
X-99603Y-165000D02*
D03*
X137744Y-69244D02*
D03*
X-138744Y-114256D02*
D03*
X140000Y119500D02*
D03*
X42244Y182744D02*
D03*
X-92500Y189000D02*
D03*
X-125500Y135000D02*
D03*
X-98000Y79000D02*
D03*
M02*
