%FSLAX25Y25*%
%MOIN*%
G70*
G01*
G75*
G04 Layer_Color=65535*
%ADD10R,0.10236X0.04331*%
%ADD11R,0.06299X0.11811*%
%ADD12R,0.04921X0.21654*%
%ADD13R,0.07480X0.09449*%
%ADD14R,0.03543X0.03150*%
%ADD15O,0.06693X0.01378*%
%ADD16R,0.03150X0.03543*%
G04:AMPARAMS|DCode=17|XSize=35.43mil|YSize=31.5mil|CornerRadius=0mil|HoleSize=0mil|Usage=FLASHONLY|Rotation=315.000|XOffset=0mil|YOffset=0mil|HoleType=Round|Shape=Rectangle|*
%AMROTATEDRECTD17*
4,1,4,-0.02366,0.00139,-0.00139,0.02366,0.02366,-0.00139,0.00139,-0.02366,-0.02366,0.00139,0.0*
%
%ADD17ROTATEDRECTD17*%

G04:AMPARAMS|DCode=18|XSize=35.43mil|YSize=31.5mil|CornerRadius=0mil|HoleSize=0mil|Usage=FLASHONLY|Rotation=225.000|XOffset=0mil|YOffset=0mil|HoleType=Round|Shape=Rectangle|*
%AMROTATEDRECTD18*
4,1,4,0.00139,0.02366,0.02366,0.00139,-0.00139,-0.02366,-0.02366,-0.00139,0.00139,0.02366,0.0*
%
%ADD18ROTATEDRECTD18*%

%ADD19R,0.09055X0.09055*%
%ADD20R,0.22441X0.06693*%
%ADD21O,0.06890X0.01181*%
%ADD22O,0.01181X0.06890*%
%ADD23R,0.03937X0.03937*%
%ADD24R,0.03150X0.01575*%
%ADD25R,0.01575X0.03150*%
G04:AMPARAMS|DCode=26|XSize=15.75mil|YSize=31.5mil|CornerRadius=0mil|HoleSize=0mil|Usage=FLASHONLY|Rotation=225.000|XOffset=0mil|YOffset=0mil|HoleType=Round|Shape=Rectangle|*
%AMROTATEDRECTD26*
4,1,4,-0.00557,0.01670,0.01670,-0.00557,0.00557,-0.01670,-0.01670,0.00557,-0.00557,0.01670,0.0*
%
%ADD26ROTATEDRECTD26*%

G04:AMPARAMS|DCode=27|XSize=15.75mil|YSize=31.5mil|CornerRadius=0mil|HoleSize=0mil|Usage=FLASHONLY|Rotation=135.000|XOffset=0mil|YOffset=0mil|HoleType=Round|Shape=Rectangle|*
%AMROTATEDRECTD27*
4,1,4,0.01670,0.00557,-0.00557,-0.01670,-0.01670,-0.00557,0.00557,0.01670,0.01670,0.00557,0.0*
%
%ADD27ROTATEDRECTD27*%

%ADD28R,0.09843X0.06693*%
%ADD29R,0.02756X0.03937*%
%ADD30R,0.05118X0.06299*%
%ADD31R,0.12992X0.06299*%
%ADD32R,0.05906X0.03937*%
%ADD33O,0.08661X0.02362*%
%ADD34O,0.07480X0.02362*%
%ADD35C,0.02000*%
%ADD36C,0.01000*%
%ADD37C,0.04000*%
%ADD38C,0.00700*%
%ADD39C,0.07874*%
%ADD40C,0.07000*%
%ADD41P,0.06960X4X180.0*%
%ADD42P,0.08352X4X352.0*%
%ADD43C,0.05906*%
%ADD44R,0.05906X0.05906*%
%ADD45R,0.05906X0.05906*%
%ADD46R,0.04921X0.04921*%
%ADD47R,0.04921X0.04921*%
%ADD48P,0.06960X4X270.0*%
%ADD49O,0.08858X0.06693*%
%ADD50O,0.06693X0.08858*%
%ADD51C,0.12000*%
%ADD52C,0.02500*%
%ADD53C,0.05000*%
%ADD54O,0.00984X0.02559*%
%ADD55O,0.02559X0.00984*%
%ADD56R,0.09843X0.09843*%
%ADD57C,0.00394*%
%ADD58C,0.00984*%
%ADD59C,0.02362*%
%ADD60C,0.00787*%
%ADD61C,0.00500*%
%ADD62C,0.00591*%
D36*
X33366Y126673D02*
X53051D01*
X33366Y113974D02*
X53051D01*
X52857Y177689D02*
Y200739D01*
X40107Y177689D02*
X52857D01*
X40107D02*
Y200739D01*
X52857D01*
X18898Y-209543D02*
Y-152457D01*
X-17716D02*
X18898D01*
X-17716Y-209543D02*
Y-152457D01*
Y-209543D02*
X18898D01*
D38*
X96942Y-139173D02*
X100274D01*
X101940Y-137507D01*
Y-134175D01*
X100274Y-132509D01*
X96942D01*
X95276Y-134175D01*
Y-137507D01*
X96942Y-139173D01*
X99615Y-134637D02*
X97615D01*
X96949Y-135304D01*
Y-136637D01*
X97615Y-137303D01*
X99615D01*
X107612D02*
X104946D01*
X107612Y-134637D01*
Y-133971D01*
X106946Y-133304D01*
X105613D01*
X104946Y-133971D01*
X108945D02*
X109611Y-133304D01*
X110944D01*
X111611Y-133971D01*
Y-136637D01*
X110944Y-137303D01*
X109611D01*
X108945Y-136637D01*
Y-133971D01*
X112944Y-137303D02*
X114277D01*
X113610D01*
Y-133304D01*
X112944Y-133971D01*
X118275Y-137303D02*
Y-133304D01*
X116276Y-135304D01*
X118942D01*
X95768Y-128740D02*
Y-126074D01*
X97101Y-124741D01*
X98434Y-126074D01*
Y-128740D01*
Y-126741D01*
X95768D01*
X99766Y-128740D02*
Y-126074D01*
X101766D01*
X102432Y-126741D01*
Y-128740D01*
X104432Y-125408D02*
Y-126074D01*
X103765D01*
X105098D01*
X104432D01*
Y-128074D01*
X105098Y-128740D01*
X107097Y-124741D02*
Y-128740D01*
Y-126741D01*
X107764Y-126074D01*
X109097D01*
X109763Y-126741D01*
Y-128740D01*
X111763D02*
X113095D01*
X113762Y-128074D01*
Y-126741D01*
X113095Y-126074D01*
X111763D01*
X111096Y-126741D01*
Y-128074D01*
X111763Y-128740D01*
X115095D02*
Y-126074D01*
X117094D01*
X117761Y-126741D01*
Y-128740D01*
X119094Y-126074D02*
Y-128074D01*
X119760Y-128740D01*
X121759D01*
Y-129407D01*
X121093Y-130073D01*
X120426D01*
X121759Y-128740D02*
Y-126074D01*
X127091Y-128740D02*
Y-124741D01*
X128424Y-126074D01*
X129757Y-124741D01*
Y-128740D01*
X133089D02*
X131756D01*
X131090Y-128074D01*
Y-126741D01*
X131756Y-126074D01*
X133089D01*
X133756Y-126741D01*
Y-127407D01*
X131090D01*
X135088Y-126074D02*
Y-128740D01*
Y-127407D01*
X135755Y-126741D01*
X136421Y-126074D01*
X137088D01*
X139087Y-128740D02*
X140420D01*
X139753D01*
Y-124741D01*
X139087D01*
X142419Y-128740D02*
X143752D01*
X143086D01*
Y-126074D01*
X142419D01*
X145752Y-128740D02*
Y-126074D01*
X147751D01*
X148417Y-126741D01*
Y-128740D01*
X150417D02*
X151750D01*
X152416Y-128074D01*
Y-126741D01*
X151750Y-126074D01*
X150417D01*
X149750Y-126741D01*
Y-128074D01*
X150417Y-128740D01*
X96457Y-117655D02*
Y-121653D01*
X98456D01*
X99123Y-120987D01*
Y-118321D01*
X98456Y-117655D01*
X96457D01*
X102455Y-121653D02*
X101122D01*
X100455Y-120987D01*
Y-119654D01*
X101122Y-118988D01*
X102455D01*
X103121Y-119654D01*
Y-120321D01*
X100455D01*
X104454Y-121653D02*
X106454D01*
X107120Y-120987D01*
X106454Y-120321D01*
X105121D01*
X104454Y-119654D01*
X105121Y-118988D01*
X107120D01*
X108453Y-121653D02*
X109786D01*
X109119D01*
Y-118988D01*
X108453D01*
X113118Y-122986D02*
X113784D01*
X114451Y-122320D01*
Y-118988D01*
X112452D01*
X111785Y-119654D01*
Y-120987D01*
X112452Y-121653D01*
X114451D01*
X115784D02*
Y-118988D01*
X117783D01*
X118450Y-119654D01*
Y-121653D01*
X121782D02*
X120449D01*
X119782Y-120987D01*
Y-119654D01*
X120449Y-118988D01*
X121782D01*
X122448Y-119654D01*
Y-120321D01*
X119782D01*
X126447Y-117655D02*
Y-121653D01*
X124448D01*
X123781Y-120987D01*
Y-119654D01*
X124448Y-118988D01*
X126447D01*
X131779Y-117655D02*
Y-121653D01*
X133778D01*
X134444Y-120987D01*
Y-120321D01*
X133778Y-119654D01*
X131779D01*
X133778D01*
X134444Y-118988D01*
Y-118321D01*
X133778Y-117655D01*
X131779D01*
X135777Y-118988D02*
Y-120987D01*
X136444Y-121653D01*
X138443D01*
Y-122320D01*
X137777Y-122986D01*
X137110D01*
X138443Y-121653D02*
Y-118988D01*
X139776D02*
X140443D01*
Y-119654D01*
X139776D01*
Y-118988D01*
Y-120987D02*
X140443D01*
Y-121653D01*
X139776D01*
Y-120987D01*
D57*
X143897Y156386D02*
G03*
X138886Y161397I-2898J2113D01*
G01*
X-166969Y93543D02*
G03*
X-166969Y86457I555J-3543D01*
G01*
Y-86457D02*
G03*
X-166969Y-93543I555J-3543D01*
G01*
X166969Y86457D02*
G03*
X166969Y93543I-555J3543D01*
G01*
Y-93543D02*
G03*
X166969Y-86457I-555J3543D01*
G01*
X-73957Y199469D02*
G03*
X-81043Y199469I-3543J-555D01*
G01*
X81043D02*
G03*
X73957Y199469I-3543J-555D01*
G01*
X-138886Y161397D02*
G03*
X-143897Y156386I-2113J-2898D01*
G01*
X49902Y98090D02*
X88484D01*
X49902Y76910D02*
Y98090D01*
Y76910D02*
X88484D01*
Y98090D01*
X147238Y153046D02*
X149465Y156387D01*
X135546Y164738D02*
X138886Y166965D01*
X149465Y156387D01*
X134092Y164115D02*
X135546Y164738D01*
X146615Y151592D02*
X147238Y153046D01*
X135546Y164738D02*
X147238Y153046D01*
X134092Y164115D02*
X146615Y151592D01*
X77874Y-97000D02*
X87000D01*
X53000Y-96969D02*
X62126D01*
X53000Y-76299D02*
X87000D01*
X-87000D02*
X-53000D01*
X-87000Y-96969D02*
X-77874D01*
X-62126Y-97000D02*
X-53000D01*
X-170905Y97480D02*
X-166968Y98268D01*
X-170905Y82520D02*
X-166968Y81732D01*
X-170905Y82520D02*
Y97480D01*
X-166968Y81732D02*
X-165500Y81145D01*
X-166968Y98268D02*
X-165500Y98855D01*
X-166968Y81732D02*
Y98268D01*
X-165500Y81145D02*
Y98855D01*
Y-98855D02*
Y-81145D01*
X-166968Y-98268D02*
Y-81732D01*
X-165500Y-81145D01*
X-166968Y-98268D02*
X-165500Y-98855D01*
X-170905Y-97480D02*
Y-82520D01*
Y-97480D02*
X-166968Y-98268D01*
X-170905Y-82520D02*
X-166968Y-81732D01*
X166969Y81732D02*
X170906Y82520D01*
X166969Y98268D02*
X170906Y97480D01*
Y82520D02*
Y97480D01*
X165500Y98855D02*
X166969Y98268D01*
X165500Y81145D02*
X166969Y81732D01*
Y98268D01*
X165500Y81145D02*
Y98855D01*
Y-98855D02*
Y-81145D01*
X166969Y-98268D02*
Y-81732D01*
X165500Y-98855D02*
X166969Y-98268D01*
X165500Y-81145D02*
X166969Y-81732D01*
X170906Y-97480D02*
Y-82520D01*
X166969Y-81732D02*
X170906Y-82520D01*
X166969Y-98268D02*
X170906Y-97480D01*
X-70020Y203405D02*
X-69232Y199469D01*
X-85768D02*
X-84980Y203405D01*
X-70020D01*
X-86355Y198000D02*
X-85768Y199469D01*
X-69232D02*
X-68645Y198000D01*
X-85768Y199469D02*
X-69232D01*
X-86355Y198000D02*
X-68645D01*
X68645D02*
X86355D01*
X69232Y199469D02*
X85768D01*
X86355Y198000D01*
X68645D02*
X69232Y199469D01*
X70020Y203405D02*
X84980D01*
X69232Y199469D02*
X70020Y203405D01*
X84980D02*
X85768Y199469D01*
X-138886Y166965D02*
X-135546Y164738D01*
X-149465Y156387D02*
X-147238Y153046D01*
X-149465Y156387D02*
X-138886Y166965D01*
X-147238Y153046D02*
X-146615Y151592D01*
X-135546Y164738D02*
X-134092Y164115D01*
X-147238Y153046D02*
X-135546Y164738D01*
X-146615Y151592D02*
X-134092Y164115D01*
D58*
X-75394Y119685D02*
G03*
X-75394Y119685I-492J0D01*
G01*
X-21457Y150197D02*
G03*
X-21457Y150197I-492J0D01*
G01*
X-125098Y103543D02*
G03*
X-125098Y103543I-492J0D01*
G01*
X126181Y75787D02*
G03*
X126181Y75787I-492J0D01*
G01*
X-54232Y176575D02*
G03*
X-54232Y176575I-492J0D01*
G01*
X92618Y158268D02*
G03*
X92618Y158268I-492J0D01*
G01*
X-100818Y140217D02*
G03*
X-100818Y140217I-492J0D01*
G01*
X123386Y119716D02*
G03*
X123386Y119716I-492J0D01*
G01*
X26870Y77362D02*
G03*
X26870Y77362I-492J0D01*
G01*
X26969Y91831D02*
G03*
X26969Y91831I-492J0D01*
G01*
X-6004Y92913D02*
G03*
X-6004Y92913I-492J0D01*
G01*
X-8957Y-109153D02*
G03*
X-8957Y-109153I-492J0D01*
G01*
X75098Y-172461D02*
G03*
X75098Y-172461I-492J0D01*
G01*
D59*
X-65847Y115157D02*
G03*
X-65847Y115157I-1181J0D01*
G01*
X-11811Y145669D02*
G03*
X-11811Y145669I-1181J0D01*
G01*
X66535Y-167520D02*
G03*
X66535Y-167520I-1181J0D01*
G01*
D60*
X-27165Y65354D02*
Y68504D01*
X-36614Y65354D02*
Y68504D01*
X-70965Y86417D02*
Y119095D01*
X-53248Y86417D02*
Y119095D01*
X-70965D02*
X-53248D01*
X-70965Y86417D02*
X-53248D01*
X22835Y-119095D02*
Y-115945D01*
X32284Y-119095D02*
Y-115945D01*
X29626Y-177067D02*
Y-167421D01*
X41831Y-177067D02*
Y-167421D01*
Y-157973D02*
Y-147736D01*
X29626Y-157973D02*
Y-147736D01*
X31398Y-178839D02*
X40059D01*
X41831Y-177067D01*
X29626D02*
X31398Y-178839D01*
X29626Y-147736D02*
X41831D01*
X72835Y-130118D02*
Y-124606D01*
X48819Y-130118D02*
Y-124606D01*
X-25000Y-124508D02*
Y-121358D01*
X-34449Y-124508D02*
Y-121358D01*
X-124437Y-181284D02*
X-116450Y-175266D01*
X-160546Y-133366D02*
X-152559Y-127348D01*
X-116450Y-175266D01*
X-160546Y-133366D02*
X-124437Y-181284D01*
X-46634Y200177D02*
X-36634D01*
Y160177D02*
Y200177D01*
X-46634Y160177D02*
Y200177D01*
Y160177D02*
X-36634D01*
X-16929Y115748D02*
Y149606D01*
X16929Y115748D02*
Y149606D01*
X-16929D02*
X16929D01*
X-16929Y115748D02*
X16929D01*
X-130709Y110827D02*
Y111614D01*
X-128740D01*
X-130709Y105315D02*
Y106102D01*
Y105315D02*
X-128740D01*
X130807Y67716D02*
Y68504D01*
X128839Y67716D02*
X130807D01*
Y73228D02*
Y74016D01*
X128839D02*
X130807D01*
X-62795Y171457D02*
X-62008D01*
X-62795D02*
Y173425D01*
X-57283Y171457D02*
X-56496D01*
Y173425D01*
X99409Y163386D02*
X100197D01*
Y161417D02*
Y163386D01*
X93898D02*
X94685D01*
X93898Y161417D02*
Y163386D01*
X-99779Y148986D02*
X-99222Y149543D01*
X-97831Y148151D01*
X-103677Y145089D02*
X-103120Y145645D01*
X-103677Y145089D02*
X-102285Y143697D01*
X131663Y118185D02*
X132220Y117628D01*
X130828Y116236D02*
X132220Y117628D01*
X127766Y122082D02*
X128323Y121525D01*
X126374Y120690D02*
X127766Y122082D01*
X-97835Y-126476D02*
X-88779D01*
X18307Y72244D02*
X19095D01*
X18307D02*
Y74212D01*
X23819Y72244D02*
X24606D01*
Y74212D01*
X18406Y86712D02*
X19193D01*
X18406D02*
Y88681D01*
X23917Y86712D02*
X24705D01*
Y88681D01*
X-14567Y87795D02*
X-13779D01*
X-14567D02*
Y89764D01*
X-9055Y87795D02*
X-8268D01*
Y89764D01*
X25000Y175000D02*
Y195000D01*
X-25000Y175000D02*
Y195000D01*
X25000D01*
X-25000Y175000D02*
X25000D01*
X-45000Y-202500D02*
Y-182500D01*
X-75000Y-202500D02*
Y-182500D01*
X-45000D01*
X-75000Y-202500D02*
X-45000D01*
X-64167D02*
X-45000D01*
X75000D02*
Y-182500D01*
X45000Y-202500D02*
Y-182500D01*
X75000D01*
X45000Y-202500D02*
X75000D01*
X55833D02*
X75000D01*
X-3543Y-129842D02*
X3543D01*
X-3543Y-110157D02*
X3543D01*
Y-129842D02*
Y-110157D01*
X-3543Y-129842D02*
Y-110157D01*
X59646Y-151772D02*
X69291D01*
X59646Y-171457D02*
X69291D01*
X59646D02*
Y-151772D01*
X69291Y-171457D02*
Y-151772D01*
D61*
X-89500Y150000D02*
X-85000D01*
Y160000D01*
X-70000D01*
Y150000D02*
Y160000D01*
Y150000D02*
X-65500D01*
X-89500D02*
Y185500D01*
X-65500D01*
Y150000D02*
Y185500D01*
X89500Y150000D02*
Y185500D01*
X65500D02*
X89500D01*
X65500Y150000D02*
Y185500D01*
X85000Y150000D02*
X89500D01*
X85000D02*
Y160000D01*
X70000D02*
X85000D01*
X70000Y150000D02*
Y160000D01*
X65500Y150000D02*
X70000D01*
X-115379Y115908D02*
X-112197Y119090D01*
X-119268Y126161D02*
X-112197Y119090D01*
X-119268Y126161D02*
X-108661Y136768D01*
X-101590Y129697D01*
X-98408Y132879D01*
X-140481Y141010D02*
X-115379Y115908D01*
X-140481Y141010D02*
X-123510Y157981D01*
X-98408Y132879D01*
X115379Y115908D02*
X140481Y141010D01*
X123510Y157981D02*
X140481Y141010D01*
X98408Y132879D02*
X123510Y157981D01*
X112197Y119090D02*
X115379Y115908D01*
X112197Y119090D02*
X119268Y126161D01*
X108661Y136768D02*
X119268Y126161D01*
X101590Y129697D02*
X108661Y136768D01*
X98408Y132879D02*
X101590Y129697D01*
X-117500Y78000D02*
Y82500D01*
X-127500D02*
X-117500D01*
X-127500D02*
Y97500D01*
X-117500D01*
Y102000D01*
X-153000Y78000D02*
X-117500D01*
X-153000D02*
Y102000D01*
X-117500D01*
X117500Y78000D02*
X153000D01*
Y102000D01*
X117500D02*
X153000D01*
X117500Y78000D02*
Y82500D01*
X127500D01*
Y97500D01*
X117500D02*
X127500D01*
X117500D02*
Y102000D01*
Y-82500D02*
Y-78000D01*
Y-82500D02*
X127500D01*
Y-97500D02*
Y-82500D01*
X117500Y-97500D02*
X127500D01*
X117500Y-102000D02*
Y-97500D01*
Y-78000D02*
X153000D01*
Y-102000D02*
Y-78000D01*
X117500Y-102000D02*
X153000D01*
X-153000Y-78000D02*
X-117500D01*
X-153000Y-102000D02*
Y-78000D01*
Y-102000D02*
X-117500D01*
Y-82500D02*
Y-78000D01*
X-127500Y-82500D02*
X-117500D01*
X-127500Y-97500D02*
Y-82500D01*
Y-97500D02*
X-117500D01*
Y-102000D02*
Y-97500D01*
X79165Y102204D02*
X78665Y102704D01*
X77665D01*
X77165Y102204D01*
Y101704D01*
X77665Y101204D01*
X78665D01*
X79165Y100704D01*
Y100205D01*
X78665Y99705D01*
X77665D01*
X77165Y100205D01*
X82164Y99705D02*
X80164D01*
X82164Y101704D01*
Y102204D01*
X81664Y102704D01*
X80664D01*
X80164Y102204D01*
D62*
X-27376Y188000D02*
X-30000D01*
X-27376Y190624D01*
Y191280D01*
X-28032Y191936D01*
X-29344D01*
X-30000Y191280D01*
X-28000Y178000D02*
X-26688D01*
X-27344D01*
Y181936D01*
X-28000Y181280D01*
X26000Y178656D02*
X26656Y178000D01*
X27968D01*
X28624Y178656D01*
Y181280D01*
X27968Y181936D01*
X26656D01*
X26000Y181280D01*
Y180624D01*
X26656Y179968D01*
X28624D01*
X26000Y188000D02*
X27312D01*
X26656D01*
Y191936D01*
X26000Y191280D01*
X29280D02*
X29936Y191936D01*
X31248D01*
X31904Y191280D01*
Y188656D01*
X31248Y188000D01*
X29936D01*
X29280Y188656D01*
Y191280D01*
X-41376Y-185564D02*
X-42688Y-186220D01*
X-44000Y-187532D01*
Y-188844D01*
X-43344Y-189500D01*
X-42032D01*
X-41376Y-188844D01*
Y-188188D01*
X-42032Y-187532D01*
X-44000D01*
X-41376Y-195564D02*
X-44000D01*
Y-197532D01*
X-42688Y-196876D01*
X-42032D01*
X-41376Y-197532D01*
Y-198844D01*
X-42032Y-199500D01*
X-43344D01*
X-44000Y-198844D01*
X-77376Y-189500D02*
X-80000D01*
X-77376Y-186876D01*
Y-186220D01*
X-78032Y-185564D01*
X-79344D01*
X-80000Y-186220D01*
X-78000Y-199500D02*
X-76688D01*
X-77344D01*
Y-195564D01*
X-78000Y-196220D01*
X78624Y-185564D02*
X77312Y-186220D01*
X76000Y-187532D01*
Y-188844D01*
X76656Y-189500D01*
X77968D01*
X78624Y-188844D01*
Y-188188D01*
X77968Y-187532D01*
X76000D01*
X78624Y-195564D02*
X76000D01*
Y-197532D01*
X77312Y-196876D01*
X77968D01*
X78624Y-197532D01*
Y-198844D01*
X77968Y-199500D01*
X76656D01*
X76000Y-198844D01*
X42624Y-189500D02*
X40000D01*
X42624Y-186876D01*
Y-186220D01*
X41968Y-185564D01*
X40656D01*
X40000Y-186220D01*
X42000Y-199500D02*
X43312D01*
X42656D01*
Y-195564D01*
X42000Y-196220D01*
M02*
