%FSLAX25Y25*%
%MOIN*%
G70*
G01*
G75*
G04 Layer_Color=8421504*
%ADD10R,0.10236X0.04331*%
%ADD11R,0.06299X0.11811*%
%ADD12R,0.04921X0.21654*%
%ADD13R,0.07480X0.09449*%
%ADD14R,0.03543X0.03150*%
%ADD15O,0.06693X0.01378*%
%ADD16R,0.03150X0.03543*%
G04:AMPARAMS|DCode=17|XSize=35.43mil|YSize=31.5mil|CornerRadius=0mil|HoleSize=0mil|Usage=FLASHONLY|Rotation=315.000|XOffset=0mil|YOffset=0mil|HoleType=Round|Shape=Rectangle|*
%AMROTATEDRECTD17*
4,1,4,-0.02366,0.00139,-0.00139,0.02366,0.02366,-0.00139,0.00139,-0.02366,-0.02366,0.00139,0.0*
%
%ADD17ROTATEDRECTD17*%

G04:AMPARAMS|DCode=18|XSize=35.43mil|YSize=31.5mil|CornerRadius=0mil|HoleSize=0mil|Usage=FLASHONLY|Rotation=225.000|XOffset=0mil|YOffset=0mil|HoleType=Round|Shape=Rectangle|*
%AMROTATEDRECTD18*
4,1,4,0.00139,0.02366,0.02366,0.00139,-0.00139,-0.02366,-0.02366,-0.00139,0.00139,0.02366,0.0*
%
%ADD18ROTATEDRECTD18*%

%ADD19R,0.09055X0.09055*%
%ADD20R,0.22441X0.06693*%
%ADD21O,0.06890X0.01181*%
%ADD22O,0.01181X0.06890*%
%ADD23R,0.03937X0.03937*%
%ADD24R,0.03150X0.01575*%
%ADD25R,0.01575X0.03150*%
G04:AMPARAMS|DCode=26|XSize=15.75mil|YSize=31.5mil|CornerRadius=0mil|HoleSize=0mil|Usage=FLASHONLY|Rotation=225.000|XOffset=0mil|YOffset=0mil|HoleType=Round|Shape=Rectangle|*
%AMROTATEDRECTD26*
4,1,4,-0.00557,0.01670,0.01670,-0.00557,0.00557,-0.01670,-0.01670,0.00557,-0.00557,0.01670,0.0*
%
%ADD26ROTATEDRECTD26*%

G04:AMPARAMS|DCode=27|XSize=15.75mil|YSize=31.5mil|CornerRadius=0mil|HoleSize=0mil|Usage=FLASHONLY|Rotation=135.000|XOffset=0mil|YOffset=0mil|HoleType=Round|Shape=Rectangle|*
%AMROTATEDRECTD27*
4,1,4,0.01670,0.00557,-0.00557,-0.01670,-0.01670,-0.00557,0.00557,0.01670,0.01670,0.00557,0.0*
%
%ADD27ROTATEDRECTD27*%

%ADD28R,0.09843X0.06693*%
%ADD29R,0.02756X0.03937*%
%ADD30R,0.05118X0.06299*%
%ADD31R,0.12992X0.06299*%
%ADD32R,0.05906X0.03937*%
%ADD33O,0.08661X0.02362*%
%ADD34O,0.07480X0.02362*%
%ADD35C,0.02000*%
%ADD36C,0.01000*%
%ADD37C,0.04000*%
%ADD38C,0.00700*%
%ADD39C,0.07874*%
%ADD40C,0.07000*%
%ADD41P,0.06960X4X180.0*%
%ADD42P,0.08352X4X352.0*%
%ADD43C,0.05906*%
%ADD44R,0.05906X0.05906*%
%ADD45R,0.05906X0.05906*%
%ADD46R,0.04921X0.04921*%
%ADD47R,0.04921X0.04921*%
%ADD48P,0.06960X4X270.0*%
%ADD49O,0.08858X0.06693*%
%ADD50O,0.06693X0.08858*%
%ADD51C,0.12000*%
%ADD52C,0.02500*%
%ADD53C,0.05000*%
%ADD54O,0.00984X0.02559*%
%ADD55O,0.02559X0.00984*%
%ADD56R,0.09843X0.09843*%
%ADD57C,0.00394*%
%ADD58C,0.00984*%
%ADD59C,0.02362*%
%ADD60C,0.00787*%
%ADD61C,0.00500*%
%ADD62C,0.00591*%
D10*
X-31890Y72244D02*
D03*
Y61614D02*
D03*
X27559Y-122835D02*
D03*
Y-112205D02*
D03*
X-29724Y-117618D02*
D03*
Y-128248D02*
D03*
D11*
X56614Y-86142D02*
D03*
X83386D02*
D03*
X-56614D02*
D03*
X-83386D02*
D03*
D12*
X66063Y-95000D02*
D03*
X73937D02*
D03*
X-66063D02*
D03*
X-73937D02*
D03*
D13*
X35138Y120374D02*
D03*
X51280D02*
D03*
D14*
X-30905Y101083D02*
D03*
Y106595D02*
D03*
X-36811Y101083D02*
D03*
Y106595D02*
D03*
X-50197Y76575D02*
D03*
Y82086D02*
D03*
X19882Y-135236D02*
D03*
Y-129724D02*
D03*
X-85925Y-157087D02*
D03*
Y-162599D02*
D03*
X-149213Y88878D02*
D03*
Y83366D02*
D03*
X-148917Y-97933D02*
D03*
Y-92421D02*
D03*
X149114Y90847D02*
D03*
Y96358D02*
D03*
X149213Y-84153D02*
D03*
Y-89665D02*
D03*
X-14862Y78740D02*
D03*
Y73228D02*
D03*
X37992Y-112599D02*
D03*
Y-118110D02*
D03*
X25295Y-129724D02*
D03*
Y-135236D02*
D03*
X-295Y203642D02*
D03*
Y198130D02*
D03*
X10039Y198228D02*
D03*
Y203740D02*
D03*
X24311Y165453D02*
D03*
Y170965D02*
D03*
X13091Y165354D02*
D03*
Y170866D02*
D03*
X-91437Y-157185D02*
D03*
Y-162697D02*
D03*
X-19094Y-125787D02*
D03*
Y-120275D02*
D03*
X44094Y135531D02*
D03*
Y130020D02*
D03*
X49508Y135531D02*
D03*
Y130020D02*
D03*
X3150Y91043D02*
D03*
Y96555D02*
D03*
X-5709Y170965D02*
D03*
Y165453D02*
D03*
X-295Y170965D02*
D03*
Y165453D02*
D03*
X-2165Y91043D02*
D03*
Y96555D02*
D03*
X-33563Y123031D02*
D03*
Y128543D02*
D03*
X7087Y170965D02*
D03*
Y165453D02*
D03*
X-40748Y145473D02*
D03*
Y150984D02*
D03*
X-35040Y145473D02*
D03*
Y150984D02*
D03*
X-143307Y88878D02*
D03*
Y83366D02*
D03*
X-142913Y-92421D02*
D03*
Y-97933D02*
D03*
X143406Y90847D02*
D03*
Y96358D02*
D03*
X143504Y-89665D02*
D03*
Y-84153D02*
D03*
X-70276Y-163681D02*
D03*
Y-158169D02*
D03*
X-61417Y-163681D02*
D03*
Y-158169D02*
D03*
X-56004Y-163681D02*
D03*
Y-158169D02*
D03*
D15*
X-75886Y116831D02*
D03*
Y114272D02*
D03*
Y111713D02*
D03*
Y109153D02*
D03*
Y106595D02*
D03*
Y104035D02*
D03*
Y101476D02*
D03*
Y98917D02*
D03*
Y96358D02*
D03*
Y93799D02*
D03*
Y91240D02*
D03*
Y88681D02*
D03*
X-48327Y116831D02*
D03*
Y114272D02*
D03*
Y111713D02*
D03*
Y109153D02*
D03*
Y106595D02*
D03*
Y104035D02*
D03*
Y101476D02*
D03*
Y98917D02*
D03*
Y96358D02*
D03*
Y93799D02*
D03*
Y91240D02*
D03*
Y88681D02*
D03*
D16*
X-78937Y181988D02*
D03*
X-84449D02*
D03*
X70768D02*
D03*
X76280D02*
D03*
X7677Y85138D02*
D03*
X13189D02*
D03*
Y66043D02*
D03*
X7677D02*
D03*
X86909Y-154134D02*
D03*
X92421D02*
D03*
X-6398Y-99213D02*
D03*
X-11909D02*
D03*
X49311Y166043D02*
D03*
X43799D02*
D03*
X38780Y130217D02*
D03*
X33268D02*
D03*
X38780Y135433D02*
D03*
X33268D02*
D03*
X14173Y91043D02*
D03*
X8661D02*
D03*
X49311Y171850D02*
D03*
X43799D02*
D03*
X-79035Y176476D02*
D03*
X-84547D02*
D03*
X76280Y176673D02*
D03*
X70768D02*
D03*
X-6496Y-104331D02*
D03*
X-12008D02*
D03*
D17*
X-128957Y146142D02*
D03*
X-132854Y142244D02*
D03*
X-124921Y142106D02*
D03*
X-128819Y138209D02*
D03*
D18*
X124232Y151063D02*
D03*
X128130Y147166D02*
D03*
X124291Y143327D02*
D03*
X120394Y147224D02*
D03*
D19*
X35728Y-171555D02*
D03*
Y-153839D02*
D03*
D20*
X60827Y-118504D02*
D03*
Y-136221D02*
D03*
D21*
X-21949Y147441D02*
D03*
Y145473D02*
D03*
Y143504D02*
D03*
Y141535D02*
D03*
Y139567D02*
D03*
Y137598D02*
D03*
Y135630D02*
D03*
Y133661D02*
D03*
Y131693D02*
D03*
Y129724D02*
D03*
Y127756D02*
D03*
Y125787D02*
D03*
Y123819D02*
D03*
Y121850D02*
D03*
Y119882D02*
D03*
Y117913D02*
D03*
X21949D02*
D03*
Y119882D02*
D03*
Y121850D02*
D03*
Y123819D02*
D03*
Y125787D02*
D03*
Y127756D02*
D03*
Y129724D02*
D03*
Y131693D02*
D03*
Y133661D02*
D03*
Y135630D02*
D03*
Y137598D02*
D03*
Y139567D02*
D03*
Y141535D02*
D03*
Y143504D02*
D03*
Y145473D02*
D03*
Y147441D02*
D03*
D22*
X-14764Y110728D02*
D03*
X-12795D02*
D03*
X-10827D02*
D03*
X-8858D02*
D03*
X-6890D02*
D03*
X-4921D02*
D03*
X-2953D02*
D03*
X-984D02*
D03*
X984D02*
D03*
X2953D02*
D03*
X4921D02*
D03*
X6890D02*
D03*
X8858D02*
D03*
X10827D02*
D03*
X12795D02*
D03*
X14764D02*
D03*
Y154626D02*
D03*
X12795D02*
D03*
X10827D02*
D03*
X8858D02*
D03*
X6890D02*
D03*
X4921D02*
D03*
X2953D02*
D03*
X984D02*
D03*
X-984D02*
D03*
X-2953D02*
D03*
X-4921D02*
D03*
X-6890D02*
D03*
X-8858D02*
D03*
X-10827D02*
D03*
X-12795D02*
D03*
X-14764D02*
D03*
D23*
X49606Y197539D02*
D03*
Y181004D02*
D03*
X43307Y197539D02*
D03*
Y181004D02*
D03*
D24*
X-132283Y108465D02*
D03*
X-125591Y110433D02*
D03*
Y106496D02*
D03*
X132382Y70866D02*
D03*
X125689Y68898D02*
D03*
Y72835D02*
D03*
D25*
X-59646Y169882D02*
D03*
X-61614Y176575D02*
D03*
X-57677D02*
D03*
X97047Y164961D02*
D03*
X99016Y158268D02*
D03*
X95079D02*
D03*
X21457Y70669D02*
D03*
X19488Y77362D02*
D03*
X23425D02*
D03*
X21555Y85138D02*
D03*
X19587Y91831D02*
D03*
X23524D02*
D03*
X-11417Y86221D02*
D03*
X-13386Y92913D02*
D03*
X-9449D02*
D03*
D26*
X-102563Y148429D02*
D03*
X-96439Y145089D02*
D03*
X-99222Y142305D02*
D03*
D27*
X131106Y120969D02*
D03*
X127766Y114844D02*
D03*
X124982Y117628D02*
D03*
D28*
X-93307Y-146752D02*
D03*
Y-131004D02*
D03*
D29*
X-89370Y-121063D02*
D03*
X-82677D02*
D03*
D30*
X-61262Y-150662D02*
D03*
X-70317D02*
D03*
X-79372D02*
D03*
D31*
X-70317Y-125859D02*
D03*
D32*
X7677Y73287D02*
D03*
Y78799D02*
D03*
X-6113Y73243D02*
D03*
X-6102Y78799D02*
D03*
D33*
X9449Y-127500D02*
D03*
Y-122500D02*
D03*
Y-117500D02*
D03*
Y-112500D02*
D03*
X-9449Y-127500D02*
D03*
Y-122500D02*
D03*
Y-117500D02*
D03*
Y-112500D02*
D03*
D34*
X54331Y-154114D02*
D03*
Y-159114D02*
D03*
Y-164114D02*
D03*
Y-169114D02*
D03*
X74606Y-154114D02*
D03*
Y-159114D02*
D03*
Y-164114D02*
D03*
Y-169114D02*
D03*
M02*
